<svg width="24" height="24" viewBox="0 0 24 24" fill="none" xmlns="http://www.w3.org/2000/svg">
<path d="M16.1454 23.6V14.68H19.0254L19.4574 11.2H16.1454V8.98004C16.1454 7.97604 16.4134 7.28804 17.8014 7.28804L19.5734 7.28404V4.18004C19.2654 4.13604 18.2174 4.04004 16.9934 4.04004C14.4414 4.04004 12.6934 5.66004 12.6934 8.63604V11.2H9.80139V14.676H12.6934V23.6H16.1454Z" fill="#208648" stroke="#208648" stroke-width="0.5"/>
<path d="M22.1294 23.6H2.12942C1.24542 23.6 0.529419 22.884 0.529419 22V2.00002C0.529419 1.11602 1.24542 0.400024 2.12942 0.400024H22.1294C23.0134 0.400024 23.7294 1.11602 23.7294 2.00002V22C23.7294 22.884 23.0134 23.6 22.1294 23.6Z" stroke="#208648" stroke-width="0.5" stroke-linejoin="round"/>
</svg>
