<svg width="24" height="24" viewBox="0 0 24 24" fill="none" xmlns="http://www.w3.org/2000/svg">
<path d="M12 2.16188C15.2044 2.16188 15.5841 2.17406 16.8488 2.23219C18.0187 2.28562 18.6544 2.48062 19.0772 2.64562C19.6369 2.86312 20.0372 3.12375 20.4572 3.54375C20.8772 3.96375 21.1369 4.36312 21.3544 4.92375C21.5184 5.34656 21.7144 5.98219 21.7678 7.15219C21.8259 8.41781 21.8381 8.7975 21.8381 12.0009C21.8381 15.2044 21.8259 15.585 21.7678 16.8497C21.7144 18.0197 21.5194 18.6553 21.3544 19.0781C21.1369 19.6378 20.8763 20.0381 20.4572 20.4581C20.0372 20.8781 19.6378 21.1378 19.0772 21.3553C18.6544 21.5194 18.0187 21.7153 16.8488 21.7687C15.5831 21.8269 15.2044 21.8391 12 21.8391C8.79562 21.8391 8.41594 21.8269 7.15125 21.7687C5.98125 21.7153 5.34562 21.5203 4.92281 21.3553C4.36312 21.1378 3.96281 20.8772 3.54281 20.4581C3.12281 20.0381 2.86312 19.6388 2.64562 19.0781C2.48156 18.6553 2.28562 18.0197 2.23219 16.8497C2.17406 15.5841 2.16188 15.2044 2.16188 12.0009C2.16188 8.7975 2.17406 8.41687 2.23219 7.15219C2.28562 5.98219 2.48062 5.34656 2.64562 4.92375C2.86312 4.36406 3.12375 3.96375 3.54281 3.54375C3.96187 3.12375 4.36219 2.86406 4.92281 2.64562C5.34562 2.48156 5.98125 2.28562 7.15125 2.23219C8.41594 2.17406 8.79562 2.16188 12 2.16188ZM12 0C8.74125 0 8.3325 0.0140625 7.05281 0.0721875C5.775 0.130313 4.90313 0.33375 4.13906 0.63C3.34969 0.936562 2.68031 1.34719 2.01375 2.01375C1.34719 2.68031 0.936562 3.35063 0.63 4.14C0.33375 4.90312 0.130313 5.775 0.0721875 7.05281C0.0140625 8.3325 0 8.74125 0 12C0 15.2587 0.0140625 15.6675 0.0721875 16.9472C0.130313 18.2241 0.33375 19.0969 0.63 19.86C0.936562 20.6494 1.34719 21.3188 2.01375 21.9853C2.68125 22.6528 3.34969 23.0625 4.13906 23.3691C4.90219 23.6653 5.775 23.8687 7.05188 23.9269C8.3325 23.9859 8.74125 24 12 24C15.2587 24 15.6675 23.9859 16.9472 23.9278C18.2241 23.8697 19.0969 23.6663 19.86 23.37C20.6494 23.0634 21.3188 22.6528 21.9853 21.9862C22.6528 21.3188 23.0625 20.6503 23.3691 19.8609C23.6653 19.0978 23.8687 18.225 23.9269 16.9481C23.985 15.6684 23.9991 15.2597 23.9991 12.0009C23.9991 8.74219 23.985 8.33344 23.9269 7.05375C23.8687 5.77688 23.6653 4.90406 23.3691 4.14094C23.0625 3.35156 22.6519 2.68219 21.9853 2.01562C21.3188 1.34906 20.6494 0.936562 19.86 0.63C19.0969 0.33375 18.2241 0.130313 16.9472 0.0721875C15.6675 0.0140625 15.2587 0 12 0ZM12 5.83781C8.59688 5.83781 5.83781 8.59688 5.83781 12C5.83781 15.4031 8.59688 18.1622 12 18.1622C15.4031 18.1622 18.1622 15.4031 18.1622 12C18.1622 8.59688 15.4031 5.83781 12 5.83781ZM12 16.0003C9.79125 16.0003 7.99969 14.2097 7.99969 12C7.99969 9.79031 9.79031 7.99969 12 7.99969C14.2097 7.99969 16.0003 9.79031 16.0003 12C16.0003 14.2097 14.2087 16.0003 12 16.0003ZM19.8459 5.59406C19.8459 6.38906 19.2009 7.03406 18.4059 7.03406C17.6109 7.03406 16.9659 6.38906 16.9659 5.59406C16.9659 4.79906 17.6109 4.15406 18.4059 4.15406C19.2009 4.15406 19.8459 4.79906 19.8459 5.59406Z" fill="#208648"/>
</svg>
