<svg width="25" height="24" viewBox="0 0 25 24" fill="none" xmlns="http://www.w3.org/2000/svg">
<path fill-rule="evenodd" clip-rule="evenodd" d="M21.3887 0.425687C20.4438 0.854311 9.79242 5.82635 1.11668 9.85541C0.429492 10.1983 0 10.8841 0 11.5699C0 12.2557 0.515391 12.7701 1.11668 12.8558C1.63207 12.9415 6.78598 13.713 6.78598 13.713L8.24625 22.2855L9.01933 18.5136L7.90266 12.8558L18.3823 5.14055L9.79242 14.5703L12.7989 17.9993C12.9707 18.1707 16.6643 22.457 16.922 22.7141C17.3515 23.1428 18.0387 24 18.3823 24C18.9836 24 19.5848 23.1428 19.8425 21.8569C20.1002 20.6567 21.8182 12.3414 23.9657 1.28294C24.2234 0.0827883 23.1067 -0.43156 21.3887 0.425687Z" fill="#208648"/>
</svg>
