<svg width="24" height="24" viewBox="0 0 24 24" fill="none" xmlns="http://www.w3.org/2000/svg">
<path d="M11.9998 9.52C11.5093 9.52 11.0298 9.66545 10.6219 9.93795C10.2141 10.2105 9.89624 10.5978 9.70854 11.0509C9.52083 11.5041 9.47172 12.0028 9.56741 12.4838C9.6631 12.9649 9.8993 13.4068 10.2461 13.7536C10.593 14.1005 11.0349 14.3367 11.5159 14.4323C11.997 14.528 12.4957 14.4789 12.9488 14.2912C13.402 14.1035 13.7893 13.7856 14.0618 13.3778C14.3343 12.97 14.4798 12.4905 14.4798 12C14.4798 11.6743 14.4156 11.3518 14.291 11.0509C14.1663 10.7501 13.9837 10.4767 13.7534 10.2464C13.5231 10.0161 13.2497 9.83341 12.9488 9.70878C12.6479 9.58415 12.3254 9.52 11.9998 9.52ZM21.9298 7.07C21.9245 6.29776 21.7823 5.53257 21.5098 4.81C21.309 4.28126 20.9985 3.80109 20.5986 3.40119C20.1987 3.00128 19.7185 2.69072 19.1898 2.49C18.4672 2.21746 17.702 2.07526 16.9298 2.07C15.6398 2 15.2598 2 11.9998 2C8.73976 2 8.35976 2 7.06976 2.07C6.29751 2.07526 5.53233 2.21746 4.80976 2.49C4.28102 2.69072 3.80085 3.00128 3.40094 3.40119C3.00103 3.80109 2.69047 4.28126 2.48976 4.81C2.21722 5.53257 2.07502 6.29776 2.06976 7.07C1.99976 8.36 1.99976 8.74 1.99976 12C1.99976 15.26 1.99976 15.64 2.06976 16.93C2.08052 17.705 2.22253 18.4725 2.48976 19.2C2.68958 19.7263 2.99988 20.2037 3.39976 20.6C3.79795 21.0023 4.27915 21.3129 4.80976 21.51C5.53233 21.7825 6.29751 21.9247 7.06976 21.93C8.35976 22 8.73976 22 11.9998 22C15.2598 22 15.6398 22 16.9298 21.93C17.702 21.9247 18.4672 21.7825 19.1898 21.51C19.7204 21.3129 20.2016 21.0023 20.5998 20.6C20.9996 20.2037 21.3099 19.7263 21.5098 19.2C21.782 18.4739 21.9242 17.7055 21.9298 16.93C21.9998 15.64 21.9998 15.26 21.9998 12C21.9998 8.74 21.9998 8.36 21.9298 7.07ZM19.3898 15.07C19.3577 15.6871 19.226 16.295 18.9998 16.87C18.8056 17.3497 18.517 17.7854 18.1511 18.1514C17.7852 18.5173 17.3494 18.8059 16.8698 19C16.2893 19.2136 15.678 19.3318 15.0598 19.35H8.93976C8.32149 19.3318 7.71025 19.2136 7.12976 19C6.63386 18.8157 6.18603 18.5217 5.81976 18.14C5.45742 17.7813 5.1776 17.3479 4.99976 16.87C4.78531 16.2901 4.67036 15.6782 4.65976 15.06V12V8.94C4.67036 8.32183 4.78531 7.70988 4.99976 7.13C5.18404 6.6341 5.47803 6.18628 5.85976 5.82C6.22009 5.45962 6.65302 5.18009 7.12976 5C7.71025 4.78641 8.32149 4.66821 8.93976 4.65H15.0598C15.678 4.66821 16.2893 4.78641 16.8698 5C17.3657 5.18428 17.8135 5.47827 18.1798 5.86C18.5421 6.21875 18.8219 6.65213 18.9998 7.13C19.2134 7.71049 19.3316 8.32173 19.3498 8.94V12C19.3498 14.06 19.4198 14.27 19.3898 15.06V15.07ZM17.7898 7.63C17.6707 7.30698 17.483 7.01364 17.2395 6.77021C16.9961 6.52678 16.7028 6.33906 16.3798 6.22C15.9362 6.06626 15.4691 5.99179 14.9998 6H8.99976C8.52802 6.00461 8.06083 6.09263 7.61976 6.26C7.30169 6.37366 7.01145 6.55371 6.76834 6.7882C6.52523 7.02269 6.33482 7.30624 6.20976 7.62C6.06453 8.06537 5.99359 8.5316 5.99976 9V15C6.00967 15.4712 6.09753 15.9375 6.25976 16.38C6.37882 16.703 6.56654 16.9964 6.80997 17.2398C7.0534 17.4832 7.34674 17.6709 7.66976 17.79C8.09642 17.9469 8.54541 18.0347 8.99976 18.05H14.9998C15.4715 18.0454 15.9387 17.9574 16.3798 17.79C16.7028 17.6709 16.9961 17.4832 17.2395 17.2398C17.483 16.9964 17.6707 16.703 17.7898 16.38C17.9571 15.9389 18.0451 15.4717 18.0498 15V12V9C18.05 8.5278 17.9619 8.05972 17.7898 7.62V7.63ZM11.9998 15.82C11.4986 15.82 11.0023 15.7211 10.5394 15.529C10.0765 15.3369 9.65606 15.0554 9.30214 14.7005C8.94822 14.3457 8.66778 13.9245 8.4769 13.4611C8.28602 12.9977 8.18844 12.5012 8.18976 12C8.18976 11.2441 8.41405 10.5051 8.83424 9.87669C9.25444 9.24828 9.85163 8.75866 10.5502 8.46983C11.2488 8.181 12.0174 8.10594 12.7587 8.25415C13.5 8.40236 14.1806 8.76717 14.7144 9.30241C15.2483 9.83764 15.6113 10.5192 15.7576 11.2609C15.9038 12.0026 15.8268 12.771 15.5361 13.4688C15.2454 14.1666 14.7543 14.7625 14.1248 15.1811C13.4952 15.5996 12.7557 15.822 11.9998 15.82ZM15.9998 8.93C15.7787 8.9066 15.5741 8.80222 15.4254 8.63697C15.2768 8.47172 15.1945 8.25729 15.1945 8.035C15.1945 7.81271 15.2768 7.59828 15.4254 7.43303C15.5741 7.26778 15.7787 7.1634 15.9998 7.14C16.2208 7.1634 16.4254 7.26778 16.5741 7.43303C16.7228 7.59828 16.805 7.81271 16.805 8.035C16.805 8.25729 16.7228 8.47172 16.5741 8.63697C16.4254 8.80222 16.2208 8.9066 15.9998 8.93Z" fill="#878787"/>
</svg>
