<svg width="48" height="48" viewBox="0 0 48 48" fill="none" xmlns="http://www.w3.org/2000/svg">
<path d="M24 17L32.6603 29H15.3397L24 17Z" fill="#F4D64C"/>
<path d="M24.8054 16.3808C24.3758 15.9513 23.7315 15.8439 23.1946 16.2734L23.0872 16.3808L14.2819 27.3338C13.9597 27.7634 13.9597 28.515 14.4966 28.8372C14.7114 28.9446 14.9262 29.052 15.1409 29.052H32.7517C33.396 29.052 33.8255 28.6224 33.8255 27.9781C33.8255 27.7634 33.7181 27.5486 33.6107 27.3338L24.8054 16.3808ZM17.396 26.9043L23.9463 18.7432L30.4966 26.9043H17.396Z" fill="#578459"/>
<path d="M29.5302 29.8036H18.3624C17.7181 29.8036 17.2886 30.2332 17.2886 30.8775C17.2886 31.5218 17.7181 31.9513 18.3624 31.9513H29.5302C30.1745 31.9513 30.604 31.5218 30.604 30.8775C30.604 30.2332 30.1745 29.8036 29.5302 29.8036Z" fill="#F4D64C"/>
</svg>

