<svg width="240" height="118" viewBox="0 0 240 118" fill="none" xmlns="http://www.w3.org/2000/svg">
<path d="M139.549 108H127.156C126.523 108 125.832 107.889 125.082 107.666C124.332 107.443 123.635 107.08 122.99 106.576C122.357 106.061 121.824 105.398 121.391 104.59C120.969 103.77 120.758 102.768 120.758 101.584V95.3965C120.758 94.9629 120.805 94.5059 120.898 94.0254C121.004 93.5449 121.162 93.0703 121.373 92.6016C121.584 92.1211 121.854 91.6641 122.182 91.2305C122.521 90.7969 122.926 90.416 123.395 90.0879C123.875 89.7598 124.426 89.4961 125.047 89.2969C125.668 89.0977 126.371 88.998 127.156 88.998H139.549V93.5684H127.156C126.559 93.5684 126.102 93.7207 125.785 94.0254C125.48 94.3301 125.328 94.7988 125.328 95.4316V101.584C125.328 102.182 125.486 102.639 125.803 102.955C126.119 103.271 126.582 103.43 127.191 103.43H139.549V108ZM159.957 93.5684H149.674C149.053 93.5684 148.584 93.7266 148.268 94.043C147.951 94.3477 147.793 94.7988 147.793 95.3965V108H143.223V95.3965C143.223 94.6113 143.322 93.9082 143.521 93.2871C143.721 92.666 143.984 92.1211 144.312 91.6523C144.652 91.1719 145.039 90.7676 145.473 90.4395C145.906 90.0996 146.357 89.8242 146.826 89.6133C147.307 89.4023 147.787 89.25 148.268 89.1562C148.76 89.0508 149.217 88.998 149.639 88.998H159.957V93.5684ZM183.354 95.291C183.354 95.9238 183.242 96.6094 183.02 97.3477C182.797 98.0742 182.434 98.7539 181.93 99.3867C181.438 100.008 180.787 100.529 179.979 100.951C179.182 101.373 178.209 101.584 177.061 101.584H168.816V97.2422H177.061C177.682 97.2422 178.162 97.0547 178.502 96.6797C178.842 96.293 179.012 95.8184 179.012 95.2559C179.012 94.6582 178.818 94.1895 178.432 93.8496C178.057 93.5098 177.6 93.3398 177.061 93.3398H168.816C168.195 93.3398 167.715 93.5332 167.375 93.9199C167.035 94.2949 166.865 94.7637 166.865 95.3262V101.707C166.865 102.316 167.053 102.791 167.428 103.131C167.814 103.471 168.289 103.641 168.852 103.641H177.061V108H168.816C168.184 108 167.498 107.889 166.76 107.666C166.033 107.443 165.354 107.086 164.721 106.594C164.1 106.09 163.578 105.439 163.156 104.643C162.734 103.834 162.523 102.855 162.523 101.707V95.291C162.523 94.6582 162.635 93.9785 162.857 93.252C163.08 92.5137 163.438 91.834 163.93 91.2129C164.434 90.5801 165.084 90.0527 165.881 89.6309C166.689 89.209 167.668 88.998 168.816 88.998H177.061C177.693 88.998 178.373 89.1094 179.1 89.332C179.838 89.5547 180.518 89.918 181.139 90.4219C181.771 90.9141 182.299 91.5645 182.721 92.373C183.143 93.1699 183.354 94.1426 183.354 95.291ZM207.277 101.584C207.277 102.369 207.178 103.078 206.979 103.711C206.779 104.332 206.516 104.883 206.188 105.363C205.859 105.832 205.479 106.236 205.045 106.576C204.611 106.904 204.154 107.174 203.674 107.385C203.205 107.596 202.725 107.754 202.232 107.859C201.752 107.953 201.295 108 200.861 108H192.617C191.832 108 191.129 107.9 190.508 107.701C189.887 107.502 189.336 107.238 188.855 106.91C188.387 106.57 187.982 106.184 187.643 105.75C187.314 105.316 187.045 104.865 186.834 104.396C186.623 103.916 186.465 103.436 186.359 102.955C186.266 102.463 186.219 102.006 186.219 101.584V95.3965C186.219 94.2246 186.43 93.2344 186.852 92.4258C187.285 91.6055 187.818 90.9434 188.451 90.4395C189.096 89.9238 189.793 89.5547 190.543 89.332C191.293 89.1094 191.984 88.998 192.617 88.998H200.861V93.5684H192.652C192.043 93.5684 191.58 93.7266 191.264 94.043C190.947 94.3477 190.789 94.7988 190.789 95.3965V101.549C190.789 102.17 190.941 102.639 191.246 102.955C191.562 103.271 192.02 103.43 192.617 103.43H200.861C201.482 103.43 201.945 103.271 202.25 102.955C202.555 102.639 202.707 102.182 202.707 101.584V80.9648H207.277V101.584ZM216.277 85.0957H211.707V80.9648H216.277V85.0957ZM216.277 108H211.707V88.998H216.277V108ZM237.951 93.5684H229.971V108H225.348V93.5684H219.406V88.998H225.348V82.793H229.971V88.998H237.951V93.5684Z" fill="url(#paint0_linear)"/>
<path d="M170.562 19.1875L149.344 62.4062C149.01 63.0729 148.51 63.6042 147.844 64C147.198 64.4167 146.479 64.625 145.688 64.625C144.917 64.625 144.198 64.4167 143.531 64C142.885 63.6042 142.385 63.0729 142.031 62.4062L120.844 19.1875H129.938L145.688 51.4688L161.5 19.1875H170.562ZM183.344 64H175.219V19.1875H183.344V64ZM237.5 37.9375C237.5 39.7917 237.271 41.4479 236.812 42.9062C236.354 44.3646 235.729 45.6562 234.938 46.7812C234.167 47.8854 233.271 48.8333 232.25 49.625C231.229 50.4167 230.156 51.0625 229.031 51.5625C227.927 52.0625 226.802 52.4271 225.656 52.6562C224.531 52.8854 223.469 53 222.469 53H204.094V44.875H222.469C223.51 44.7917 224.448 44.5833 225.281 44.25C226.135 43.8958 226.865 43.4271 227.469 42.8438C228.073 42.2604 228.542 41.5625 228.875 40.75C229.208 39.9167 229.375 38.9792 229.375 37.9375V34.25C229.271 33.2292 229.052 32.2917 228.719 31.4375C228.385 30.5833 227.927 29.8542 227.344 29.25C226.781 28.6458 226.094 28.1771 225.281 27.8438C224.469 27.4896 223.531 27.3125 222.469 27.3125H204.156C203.073 27.3125 202.25 27.5938 201.688 28.1562C201.125 28.7188 200.844 29.5312 200.844 30.5938V64H192.719V30.5938C192.719 28.5104 193.094 26.7396 193.844 25.2812C194.615 23.8229 195.562 22.6458 196.688 21.75C197.833 20.8542 199.073 20.2083 200.406 19.8125C201.74 19.3958 202.969 19.1875 204.094 19.1875H222.469C224.302 19.1875 225.948 19.4271 227.406 19.9062C228.865 20.3646 230.146 20.9896 231.25 21.7812C232.375 22.5521 233.323 23.4479 234.094 24.4688C234.885 25.4896 235.531 26.5625 236.031 27.6875C236.552 28.7917 236.927 29.9167 237.156 31.0625C237.385 32.1875 237.5 33.25 237.5 34.25V37.9375Z" fill="url(#paint1_linear)"/>
<g clip-path="url(#clip0)">
<path d="M96.2002 29.9L71.7002 71.9L47.2002 29.9L53.3002 20H91.2002L96.2002 29.9Z" fill="url(#paint2_linear)"/>
<path d="M63.8 86.4L50.7 108L0 20H25.1L63.8 86.4Z" fill="url(#paint3_linear)"/>
<path opacity="0.51" d="M96.2002 29.9H71.7002H47.2002L53.3002 20H91.2002L96.2002 29.9Z" fill="#F9EAA5"/>
<path opacity="0.51" d="M30.8711 29.9H5.70703L0 20H25.0977L30.8711 29.9Z" fill="#F9EAA5"/>
</g>
<defs>
<linearGradient id="paint0_linear" x1="126.5" y1="96.2105" x2="231.5" y2="96.2105" gradientUnits="userSpaceOnUse">
<stop stop-color="#008C4A"/>
<stop offset="1" stop-color="#19AA64"/>
</linearGradient>
<linearGradient id="paint1_linear" x1="128.437" y1="43.1579" x2="232.562" y2="43.1579" gradientUnits="userSpaceOnUse">
<stop stop-color="#E6F232"/>
<stop offset="1" stop-color="#D5B833"/>
</linearGradient>
<linearGradient id="paint2_linear" x1="50.2627" y1="47.3158" x2="93.1377" y2="47.3158" gradientUnits="userSpaceOnUse">
<stop stop-color="#E6F232"/>
<stop offset="1" stop-color="#D5B833"/>
</linearGradient>
<linearGradient id="paint3_linear" x1="3.9875" y1="66.3158" x2="59.8125" y2="66.3158" gradientUnits="userSpaceOnUse">
<stop stop-color="#E6F232"/>
<stop offset="1" stop-color="#D5B833"/>
</linearGradient>
<clipPath id="clip0">
<rect width="96.2" height="88" fill="white" transform="translate(0 20)"/>
</clipPath>
</defs>
</svg>
