<svg width="43" height="45" viewBox="0 0 43 45" fill="none" xmlns="http://www.w3.org/2000/svg">
<path d="M4.93441 41.4844C4.51146 41.4844 4.22949 41.2031 4.22949 40.7812V2.8125C4.22949 2.39062 4.51146 2.10938 4.93441 2.10938C5.35736 2.10938 5.63933 2.39062 5.63933 2.8125V40.7812C5.63933 41.1328 5.35736 41.4844 4.93441 41.4844Z" fill="#208648"/>
<path d="M31.0164 41.4844C30.5934 41.4844 30.3115 41.2031 30.3115 40.7812V2.8125C30.3115 2.39062 30.5934 2.10938 31.0164 2.10938C31.4393 2.10938 31.7213 2.39062 31.7213 2.8125V40.7812C31.7213 41.1328 31.4393 41.4844 31.0164 41.4844Z" fill="#208648"/>
<path d="M27.4918 11.9531H26.082C25.659 11.9531 25.3771 11.6719 25.3771 11.25C25.3771 10.8281 25.659 10.5469 26.082 10.5469H27.4918C27.9148 10.5469 28.1967 10.8281 28.1967 11.25C28.1967 11.6719 27.9148 11.9531 27.4918 11.9531Z" fill="#208648"/>
<path d="M27.4918 14.0625C27.2803 14.0625 27.0688 13.9219 26.9278 13.7813L25.518 11.6719C25.3065 11.3203 25.377 10.8984 25.7295 10.6875C26.0819 10.4766 26.5049 10.5469 26.7164 10.8984L28.1262 13.0078C28.3377 13.3594 28.2672 13.7812 27.9147 13.9922C27.7737 14.0625 27.6328 14.0625 27.4918 14.0625Z" fill="#208648"/>
<path d="M27.4918 14.0625H26.082C25.659 14.0625 25.3771 13.7812 25.3771 13.3594C25.3771 12.9375 25.659 12.6562 26.082 12.6562H27.4918C27.9148 12.6562 28.1967 12.9375 28.1967 13.3594C28.1967 13.7812 27.9148 14.0625 27.4918 14.0625Z" fill="#208648"/>
<path d="M23.9672 13.3594H21.8524C21.4295 13.3594 21.1475 13.0781 21.1475 12.6562C21.1475 12.2344 21.4295 11.9531 21.8524 11.9531H23.9672C24.3901 11.9531 24.6721 12.2344 24.6721 12.6562C24.6721 13.0781 24.3901 13.3594 23.9672 13.3594Z" fill="#208648"/>
<path d="M16.918 13.3594H8.45901C8.03606 13.3594 7.75409 13.0781 7.75409 12.6562C7.75409 12.2344 8.03606 11.9531 8.45901 11.9531H16.918C17.341 11.9531 17.6229 12.2344 17.6229 12.6562C17.6229 13.0781 17.341 13.3594 16.918 13.3594Z" fill="#208648"/>
<path d="M27.4918 6.32812H26.082C25.659 6.32812 25.3771 6.04688 25.3771 5.625C25.3771 5.20312 25.659 4.92188 26.082 4.92188H27.4918C27.9148 4.92188 28.1967 5.20312 28.1967 5.625C28.1967 6.04688 27.9148 6.32812 27.4918 6.32812Z" fill="#208648"/>
<path d="M27.4918 8.4375C27.2803 8.4375 27.0688 8.29688 26.9278 8.15625L25.518 6.04688C25.3065 5.69531 25.377 5.27344 25.7295 5.0625C26.0819 4.85156 26.5049 4.92188 26.7164 5.27344L28.1262 7.38281C28.3377 7.73438 28.2672 8.15625 27.9147 8.36719C27.7737 8.36719 27.6328 8.4375 27.4918 8.4375Z" fill="#208648"/>
<path d="M27.4918 8.4375H26.082C25.659 8.4375 25.3771 8.15625 25.3771 7.73438C25.3771 7.3125 25.659 7.03125 26.082 7.03125H27.4918C27.9148 7.03125 28.1967 7.3125 28.1967 7.73438C28.1967 8.15625 27.9148 8.4375 27.4918 8.4375Z" fill="#208648"/>
<path d="M23.9672 7.73438H21.8524C21.4295 7.73438 21.1475 7.45312 21.1475 7.03125C21.1475 6.60937 21.4295 6.32812 21.8524 6.32812H23.9672C24.3901 6.32812 24.6721 6.60937 24.6721 7.03125C24.6721 7.45312 24.3901 7.73438 23.9672 7.73438Z" fill="#208648"/>
<path d="M11.2787 7.73438H8.45901C8.03606 7.73438 7.75409 7.45312 7.75409 7.03125C7.75409 6.60937 8.03606 6.32812 8.45901 6.32812H11.2787C11.7016 6.32812 11.9836 6.60937 11.9836 7.03125C11.9836 7.45312 11.7016 7.73438 11.2787 7.73438Z" fill="#208648"/>
<path d="M27.4918 17.5781H26.082C25.659 17.5781 25.3771 17.2969 25.3771 16.875C25.3771 16.4531 25.659 16.1719 26.082 16.1719H27.4918C27.9148 16.1719 28.1967 16.4531 28.1967 16.875C28.1967 17.2969 27.9148 17.5781 27.4918 17.5781Z" fill="#208648"/>
<path d="M27.4918 19.6875C27.2803 19.6875 27.0688 19.5469 26.9278 19.4063L25.518 17.2969C25.3065 16.9453 25.377 16.5234 25.7295 16.3125C26.0819 16.1016 26.5049 16.1719 26.7164 16.5234L28.1262 18.6328C28.3377 18.9844 28.2672 19.4062 27.9147 19.6172C27.7737 19.6172 27.6328 19.6875 27.4918 19.6875Z" fill="#208648"/>
<path d="M27.4918 19.6875H26.082C25.659 19.6875 25.3771 19.4062 25.3771 18.9844C25.3771 18.5625 25.659 18.2812 26.082 18.2812H27.4918C27.9148 18.2812 28.1967 18.5625 28.1967 18.9844C28.1967 19.4062 27.9148 19.6875 27.4918 19.6875Z" fill="#208648"/>
<path d="M23.9672 18.9844H21.8524C21.4295 18.9844 21.1475 18.7031 21.1475 18.2812C21.1475 17.8594 21.4295 17.5781 21.8524 17.5781H23.9672C24.3901 17.5781 24.6721 17.8594 24.6721 18.2812C24.6721 18.7031 24.3901 18.9844 23.9672 18.9844Z" fill="#208648"/>
<path d="M13.3934 18.9844H8.45901C8.03606 18.9844 7.75409 18.7031 7.75409 18.2812C7.75409 17.8594 8.03606 17.5781 8.45901 17.5781H13.3934C13.8164 17.5781 14.0984 17.8594 14.0984 18.2812C14.0984 18.7031 13.8164 18.9844 13.3934 18.9844Z" fill="#208648"/>
<path d="M27.4918 23.2031H26.082C25.659 23.2031 25.3771 22.9219 25.3771 22.5C25.3771 22.0781 25.659 21.7969 26.082 21.7969H27.4918C27.9148 21.7969 28.1967 22.0781 28.1967 22.5C28.1967 22.9219 27.9148 23.2031 27.4918 23.2031Z" fill="#208648"/>
<path d="M27.4918 25.3125C27.2803 25.3125 27.0688 25.1719 26.9278 25.0312L25.518 22.9219C25.3065 22.5703 25.377 22.1484 25.7295 21.9375C26.0819 21.7266 26.5049 21.7969 26.7164 22.1484L28.1262 24.2578C28.3377 24.6094 28.2672 25.0313 27.9147 25.2422C27.7737 25.3125 27.6328 25.3125 27.4918 25.3125Z" fill="#208648"/>
<path d="M27.4918 25.3125H26.082C25.659 25.3125 25.3771 25.0312 25.3771 24.6094C25.3771 24.1875 25.659 23.9062 26.082 23.9062H27.4918C27.9148 23.9062 28.1967 24.1875 28.1967 24.6094C28.1967 25.0312 27.9148 25.3125 27.4918 25.3125Z" fill="#208648"/>
<path d="M23.9672 24.6094H21.8524C21.4295 24.6094 21.1475 24.3281 21.1475 23.9062C21.1475 23.4844 21.4295 23.2031 21.8524 23.2031H23.9672C24.3901 23.2031 24.6721 23.4844 24.6721 23.9062C24.6721 24.3281 24.3901 24.6094 23.9672 24.6094Z" fill="#208648"/>
<path d="M15.5082 24.6094H8.45901C8.03606 24.6094 7.75409 24.3281 7.75409 23.9062C7.75409 23.4844 8.03606 23.2031 8.45901 23.2031H15.5082C15.9311 23.2031 16.2131 23.4844 16.2131 23.9062C16.2131 24.3281 15.9311 24.6094 15.5082 24.6094Z" fill="#208648"/>
<path d="M27.4918 34.4531H26.082C25.659 34.4531 25.3771 34.1719 25.3771 33.75C25.3771 33.3281 25.659 33.0469 26.082 33.0469H27.4918C27.9148 33.0469 28.1967 33.3281 28.1967 33.75C28.1967 34.1719 27.9148 34.4531 27.4918 34.4531Z" fill="#208648"/>
<path d="M27.4918 36.5625C27.2803 36.5625 27.0688 36.4219 26.9278 36.2812L25.518 34.1719C25.3065 33.8203 25.377 33.3984 25.7295 33.1875C26.0819 32.9766 26.5049 33.0469 26.7164 33.3984L28.1262 35.5078C28.3377 35.8594 28.2672 36.2813 27.9147 36.4922C27.7737 36.5625 27.6328 36.5625 27.4918 36.5625Z" fill="#208648"/>
<path d="M27.4918 36.5625H26.082C25.659 36.5625 25.3771 36.2812 25.3771 35.8594C25.3771 35.4375 25.659 35.1562 26.082 35.1562H27.4918C27.9148 35.1562 28.1967 35.4375 28.1967 35.8594C28.1967 36.2812 27.9148 36.5625 27.4918 36.5625Z" fill="#208648"/>
<path d="M23.9672 35.8594H21.8524C21.4295 35.8594 21.1475 35.5781 21.1475 35.1562C21.1475 34.7344 21.4295 34.4531 21.8524 34.4531H23.9672C24.3901 34.4531 24.6721 34.7344 24.6721 35.1562C24.6721 35.5781 24.3901 35.8594 23.9672 35.8594Z" fill="#208648"/>
<path d="M10.5738 35.8594H8.45901C8.03606 35.8594 7.75409 35.5781 7.75409 35.1562C7.75409 34.7344 8.03606 34.4531 8.45901 34.4531H10.5738C10.9967 34.4531 11.2787 34.7344 11.2787 35.1562C11.2787 35.5781 10.9262 35.8594 10.5738 35.8594Z" fill="#208648"/>
<path d="M31.7213 41.4844H4.22952C3.80656 41.4844 3.5246 41.2031 3.5246 40.7812C3.5246 40.3594 3.80656 40.0781 4.22952 40.0781H31.7213C32.1443 40.0781 32.4262 40.3594 32.4262 40.7812C32.4262 41.2031 32.1443 41.4844 31.7213 41.4844Z" fill="#208648"/>
<path d="M36.6557 4.21875C36.2328 4.21875 35.9508 3.9375 35.9508 3.51562C35.9508 2.32031 35.0344 1.40625 33.8361 1.40625C32.6377 1.40625 31.7213 2.32031 31.7213 3.51562C31.7213 3.9375 31.4393 4.21875 31.0164 4.21875C30.5934 4.21875 30.3115 3.9375 30.3115 3.51562C30.3115 1.54688 31.8623 0 33.8361 0C35.8098 0 37.3606 1.54688 37.3606 3.51562C37.3606 3.86719 37.0787 4.21875 36.6557 4.21875Z" fill="#208648"/>
<path d="M39.4754 16.875C37.5016 16.875 35.9508 15.3281 35.9508 13.3594C35.9508 12.9375 36.2328 12.6562 36.6557 12.6562C37.0787 12.6562 37.3606 12.9375 37.3606 13.3594C37.3606 14.5547 38.277 15.4688 39.4754 15.4688C40.6738 15.4688 41.5901 14.5547 41.5901 13.3594C41.5901 12.9375 41.8721 12.6562 42.2951 12.6562C42.718 12.6562 43 12.9375 43 13.3594C43 15.3281 41.4492 16.875 39.4754 16.875Z" fill="#208648"/>
<path d="M4.93441 4.21875C4.51146 4.21875 4.22949 3.86719 4.22949 3.51562C4.22949 1.54688 5.78031 0 7.75408 0C8.17703 0 8.459 0.28125 8.459 0.703125C8.459 1.125 8.17703 1.40625 7.75408 1.40625C6.55572 1.40625 5.63933 2.32031 5.63933 3.51562C5.63933 3.86719 5.35736 4.21875 4.93441 4.21875Z" fill="#208648"/>
<path d="M33.8361 1.40625H7.75411C7.33116 1.40625 7.04919 1.125 7.04919 0.703125C7.04919 0.28125 7.33116 0 7.75411 0H33.8361C34.259 0 34.541 0.28125 34.541 0.703125C34.541 1.125 34.259 1.40625 33.8361 1.40625Z" fill="#208648"/>
<path d="M36.6557 14.0625C36.2328 14.0625 35.9508 13.7812 35.9508 13.3594V3.51562C35.9508 3.09375 36.2328 2.8125 36.6557 2.8125C37.0787 2.8125 37.3606 3.09375 37.3606 3.51562V13.3594C37.3606 13.7812 37.0787 14.0625 36.6557 14.0625Z" fill="#208648"/>
<path d="M39.4754 16.875H31.0164C30.5934 16.875 30.3115 16.5938 30.3115 16.1719C30.3115 15.75 30.5934 15.4688 31.0164 15.4688H39.4754C39.8983 15.4688 40.1803 15.75 40.1803 16.1719C40.1803 16.5938 39.8983 16.875 39.4754 16.875Z" fill="#208648"/>
<path d="M42.2951 14.0625C41.8721 14.0625 41.5901 13.7812 41.5901 13.3594V9.84375C41.5901 9.42187 41.8721 9.14062 42.2951 9.14062C42.718 9.14062 43 9.42187 43 9.84375V13.3594C43 13.7812 42.718 14.0625 42.2951 14.0625Z" fill="#208648"/>
<path d="M33.8361 45H2.11475C0.916393 45 0 44.0859 0 42.8906V38.6719C0 37.4766 0.916393 36.5625 2.11475 36.5625H4.93443C5.35738 36.5625 5.63934 36.8437 5.63934 37.2656C5.63934 37.6875 5.35738 37.9688 4.93443 37.9688H2.11475C1.6918 37.9688 1.40984 38.25 1.40984 38.6719V42.8906C1.40984 43.3125 1.6918 43.5938 2.11475 43.5938H33.8361C34.259 43.5938 34.541 43.3125 34.541 42.8906V38.6719C34.541 38.25 34.259 37.9688 33.8361 37.9688H31.0164C30.5934 37.9688 30.3115 37.6875 30.3115 37.2656C30.3115 36.8437 30.5934 36.5625 31.0164 36.5625H33.8361C35.0344 36.5625 35.9508 37.4766 35.9508 38.6719V42.8906C35.9508 44.0859 35.0344 45 33.8361 45Z" fill="#208648"/>
<path d="M8.45901 31.6406C8.03606 31.6406 7.75409 31.3594 7.75409 30.9375V30.2344C7.75409 29.8125 8.03606 29.5312 8.45901 29.5312C8.88196 29.5312 9.16393 29.8125 9.16393 30.2344V30.9375C9.16393 31.3594 8.88196 31.6406 8.45901 31.6406Z" fill="#208648"/>
<path d="M10.5738 31.6406C10.1508 31.6406 9.86884 31.3594 9.86884 30.9375V30.2344C9.86884 29.8125 10.1508 29.5312 10.5738 29.5312C10.9967 29.5312 11.2787 29.8125 11.2787 30.2344V30.9375C11.2787 31.3594 10.9967 31.6406 10.5738 31.6406Z" fill="#208648"/>
<path d="M12.6885 31.6406C12.2655 31.6406 11.9836 31.3594 11.9836 30.9375V30.2344C11.9836 29.8125 12.2655 29.5312 12.6885 29.5312C13.1115 29.5312 13.3934 29.8125 13.3934 30.2344V30.9375C13.3934 31.3594 13.1115 31.6406 12.6885 31.6406Z" fill="#208648"/>
<path d="M14.8033 31.6406C14.3804 31.6406 14.0984 31.3594 14.0984 30.9375V30.2344C14.0984 29.8125 14.3804 29.5312 14.8033 29.5312C15.2263 29.5312 15.5082 29.8125 15.5082 30.2344V30.9375C15.5082 31.3594 15.2263 31.6406 14.8033 31.6406Z" fill="#208648"/>
<path d="M19.0328 31.6406C18.6098 31.6406 18.3279 31.3594 18.3279 30.9375V30.2344C18.3279 29.8125 18.6098 29.5312 19.0328 29.5312C19.4557 29.5312 19.7377 29.8125 19.7377 30.2344V30.9375C19.7377 31.3594 19.4557 31.6406 19.0328 31.6406Z" fill="#208648"/>
<path d="M16.9181 31.6406C16.4951 31.6406 16.2131 31.3594 16.2131 30.9375V30.2344C16.2131 29.8125 16.4951 29.5312 16.9181 29.5312C17.341 29.5312 17.623 29.8125 17.623 30.2344V30.9375C17.623 31.3594 17.341 31.6406 16.9181 31.6406Z" fill="#208648"/>
<path d="M21.1475 31.6406C20.7246 31.6406 20.4426 31.3594 20.4426 30.9375V30.2344C20.4426 29.8125 20.7246 29.5312 21.1475 29.5312C21.5705 29.5312 21.8525 29.8125 21.8525 30.2344V30.9375C21.8525 31.3594 21.5705 31.6406 21.1475 31.6406Z" fill="#208648"/>
<path d="M23.2623 31.6406C22.8393 31.6406 22.5574 31.3594 22.5574 30.9375V30.2344C22.5574 29.8125 22.8393 29.5312 23.2623 29.5312C23.6852 29.5312 23.9672 29.8125 23.9672 30.2344V30.9375C23.9672 31.3594 23.6852 31.6406 23.2623 31.6406Z" fill="#208648"/>
<path d="M25.377 31.6406C24.9541 31.6406 24.6721 31.3594 24.6721 30.9375V30.2344C24.6721 29.8125 24.9541 29.5312 25.377 29.5312C25.8 29.5312 26.082 29.8125 26.082 30.2344V30.9375C26.082 31.3594 25.8 31.6406 25.377 31.6406Z" fill="#208648"/>
<path d="M27.4918 31.6406C27.0688 31.6406 26.7869 31.3594 26.7869 30.9375V30.2344C26.7869 29.8125 27.0688 29.5312 27.4918 29.5312C27.9147 29.5312 28.1967 29.8125 28.1967 30.2344V30.9375C28.1967 31.3594 27.9147 31.6406 27.4918 31.6406Z" fill="#208648"/>
<path d="M42.2951 10.5469C42.0836 10.5469 41.9426 10.4766 41.8016 10.3359L40.3918 8.92969C40.1098 8.64844 40.1098 8.22656 40.3918 7.94531C40.6737 7.66406 41.0967 7.66406 41.3787 7.94531L42.7885 9.35156C43.0705 9.63281 43.0705 10.0547 42.7885 10.3359C42.6475 10.4766 42.5065 10.5469 42.2951 10.5469Z" fill="#208648"/>
<path d="M39.4754 10.5469C39.264 10.5469 39.123 10.4766 38.982 10.3359C38.7 10.0547 38.7 9.63281 38.982 9.35156L40.3918 7.94531C40.6738 7.66406 41.0967 7.66406 41.3787 7.94531C41.6607 8.22656 41.6607 8.64844 41.3787 8.92969L39.9689 10.3359C39.8279 10.4766 39.6869 10.5469 39.4754 10.5469Z" fill="#208648"/>
<path d="M39.4754 10.5469C39.2639 10.5469 39.123 10.4766 38.982 10.3359L37.5721 8.92969C37.2902 8.64844 37.2902 8.22656 37.5721 7.94531C37.8541 7.66406 38.2771 7.66406 38.559 7.94531L39.9689 9.35156C40.2508 9.63281 40.2508 10.0547 39.9689 10.3359C39.8279 10.4766 39.6869 10.5469 39.4754 10.5469Z" fill="#208648"/>
<path d="M36.6557 10.5469C36.4442 10.5469 36.3033 10.4766 36.1623 10.3359C35.8803 10.0547 35.8803 9.63281 36.1623 9.35156L37.5721 7.94531C37.8541 7.66406 38.277 7.66406 38.559 7.94531C38.841 8.22656 38.841 8.64844 38.559 8.92969L37.1492 10.3359C37.0082 10.4766 36.8672 10.5469 36.6557 10.5469Z" fill="#208648"/>
</svg>
