<svg width="16" height="16" viewBox="0 0 16 16" fill="none" xmlns="http://www.w3.org/2000/svg">
<path d="M12.6663 2.66699H3.33301C2.80257 2.66699 2.29387 2.87771 1.91879 3.25278C1.54372 3.62785 1.33301 4.13656 1.33301 4.66699V11.3337C1.33301 11.8641 1.54372 12.3728 1.91879 12.7479C2.29387 13.1229 2.80257 13.3337 3.33301 13.3337H12.6663C13.1968 13.3337 13.7055 13.1229 14.0806 12.7479C14.4556 12.3728 14.6663 11.8641 14.6663 11.3337V4.66699C14.6663 4.13656 14.4556 3.62785 14.0806 3.25278C13.7055 2.87771 13.1968 2.66699 12.6663 2.66699ZM3.33301 4.00033H12.6663C12.8432 4.00033 13.0127 4.07056 13.1377 4.19559C13.2628 4.32061 13.333 4.49018 13.333 4.66699L7.99967 7.92033L2.66634 4.66699C2.66634 4.49018 2.73658 4.32061 2.8616 4.19559C2.98663 4.07056 3.1562 4.00033 3.33301 4.00033ZM13.333 11.3337C13.333 11.5105 13.2628 11.68 13.1377 11.8051C13.0127 11.9301 12.8432 12.0003 12.6663 12.0003H3.33301C3.1562 12.0003 2.98663 11.9301 2.8616 11.8051C2.73658 11.68 2.66634 11.5105 2.66634 11.3337V6.18699L7.65301 9.23366C7.75435 9.29217 7.86932 9.32297 7.98634 9.32297C8.10337 9.32297 8.21833 9.29217 8.31967 9.23366L13.333 6.18699V11.3337Z" fill="#588559"/>
</svg>
