<svg width="15" height="16" viewBox="0 0 15 16" fill="none" xmlns="http://www.w3.org/2000/svg">
<g clip-path="url(#clip0)">
<path d="M6.54107 4.00026L6.86846 3.60692V6.00026C6.86846 6.17707 6.93234 6.34664 7.04604 6.47166C7.15974 6.59669 7.31395 6.66692 7.47474 6.66692C7.63554 6.66692 7.78975 6.59669 7.90345 6.47166C8.01715 6.34664 8.08102 6.17707 8.08102 6.00026V3.60692L8.40841 3.97359C8.46345 4.04194 8.53066 4.09713 8.60588 4.13574C8.68111 4.17436 8.76275 4.19557 8.84574 4.19807C8.92872 4.20057 9.0113 4.18431 9.08833 4.15028C9.16537 4.11625 9.23523 4.06519 9.29358 4.00026C9.35041 3.93828 9.39551 3.86455 9.42629 3.78331C9.45707 3.70207 9.47292 3.61493 9.47292 3.52692C9.47292 3.43892 9.45707 3.35178 9.42629 3.27054C9.39551 3.1893 9.35041 3.11557 9.29358 3.05359L7.9052 1.52692C7.84754 1.46623 7.77955 1.41865 7.70513 1.38692C7.55752 1.32024 7.39196 1.32024 7.24436 1.38692C7.16993 1.41865 7.10194 1.46623 7.04428 1.52692L5.6559 3.02692C5.53852 3.156 5.47258 3.33105 5.47258 3.51359C5.47258 3.69613 5.53852 3.87118 5.6559 4.00026C5.77328 4.12933 5.93249 4.20184 6.09849 4.20184C6.26449 4.20184 6.42369 4.12933 6.54107 4.00026ZM7.47474 8.00026C7.11501 8.00026 6.76336 8.11755 6.46425 8.33732C6.16514 8.55708 5.93202 8.86944 5.79435 9.23489C5.65669 9.60034 5.62067 10.0025 5.69085 10.3904C5.76103 10.7784 5.93426 11.1348 6.18863 11.4145C6.443 11.6942 6.76708 11.8847 7.1199 11.9618C7.47272 12.039 7.83843 11.9994 8.17078 11.848C8.50313 11.6966 8.78719 11.4403 8.98705 11.1114C9.18691 10.7825 9.29358 10.3958 9.29358 10.0003C9.29358 9.46982 9.10195 8.96112 8.76086 8.58604C8.41976 8.21097 7.95713 8.00026 7.47474 8.00026ZM7.47474 10.6669C7.35483 10.6669 7.23761 10.6278 7.13791 10.5546C7.03821 10.4813 6.9605 10.3772 6.91461 10.2554C6.86872 10.1336 6.85672 9.99952 6.88011 9.8702C6.9035 9.74088 6.96125 9.62209 7.04604 9.52885C7.13083 9.43562 7.23886 9.37212 7.35646 9.3464C7.47407 9.32068 7.59597 9.33388 7.70676 9.38434C7.81754 9.43479 7.91223 9.52024 7.97885 9.62988C8.04546 9.73951 8.08102 9.8684 8.08102 10.0003C8.08102 10.1771 8.01715 10.3466 7.90345 10.4717C7.78975 10.5967 7.63554 10.6669 7.47474 10.6669ZM3.23078 10.0003C3.23078 10.1321 3.26634 10.261 3.33296 10.3706C3.39958 10.4803 3.49427 10.5657 3.60505 10.6162C3.71583 10.6666 3.83774 10.6798 3.95534 10.6541C4.07295 10.6284 4.18098 10.5649 4.26577 10.4717C4.35056 10.3784 4.4083 10.2596 4.43169 10.1303C4.45509 10.001 4.44308 9.86695 4.39719 9.74513C4.3513 9.62332 4.2736 9.5192 4.17389 9.44594C4.07419 9.37269 3.95697 9.33359 3.83706 9.33359C3.67627 9.33359 3.52206 9.40383 3.40836 9.52885C3.29466 9.65388 3.23078 9.82345 3.23078 10.0003ZM11.7187 10.0003C11.7187 9.8684 11.6831 9.73951 11.6165 9.62988C11.5499 9.52024 11.4552 9.43479 11.3444 9.38434C11.2337 9.33388 11.1117 9.32068 10.9941 9.3464C10.8765 9.37212 10.7685 9.43562 10.6837 9.52885C10.5989 9.62209 10.5412 9.74088 10.5178 9.8702C10.4944 9.99952 10.5064 10.1336 10.5523 10.2554C10.5982 10.3772 10.6759 10.4813 10.7756 10.5546C10.8753 10.6278 10.9925 10.6669 11.1124 10.6669C11.2732 10.6669 11.4274 10.5967 11.5411 10.4717C11.6548 10.3466 11.7187 10.1771 11.7187 10.0003ZM12.325 5.33359H9.89986C9.73907 5.33359 9.58486 5.40383 9.47116 5.52885C9.35746 5.65388 9.29358 5.82345 9.29358 6.00026C9.29358 6.17707 9.35746 6.34664 9.47116 6.47166C9.58486 6.59669 9.73907 6.66692 9.89986 6.66692H12.325C12.4858 6.66692 12.64 6.73716 12.7537 6.86219C12.8674 6.98721 12.9313 7.15678 12.9313 7.33359V12.6669C12.9313 12.8437 12.8674 13.0133 12.7537 13.1383C12.64 13.2634 12.4858 13.3336 12.325 13.3336H2.6245C2.46371 13.3336 2.3095 13.2634 2.1958 13.1383C2.0821 13.0133 2.01822 12.8437 2.01822 12.6669V7.33359C2.01822 7.15678 2.0821 6.98721 2.1958 6.86219C2.3095 6.73716 2.46371 6.66692 2.6245 6.66692H5.04962C5.21042 6.66692 5.36463 6.59669 5.47833 6.47166C5.59203 6.34664 5.6559 6.17707 5.6559 6.00026C5.6559 5.82345 5.59203 5.65388 5.47833 5.52885C5.36463 5.40383 5.21042 5.33359 5.04962 5.33359H2.6245C2.14212 5.33359 1.67949 5.5443 1.33839 5.91938C0.997291 6.29445 0.805664 6.80316 0.805664 7.33359V12.6669C0.805664 13.1974 0.997291 13.7061 1.33839 14.0811C1.67949 14.4562 2.14212 14.6669 2.6245 14.6669H12.325C12.8074 14.6669 13.27 14.4562 13.6111 14.0811C13.9522 13.7061 14.1438 13.1974 14.1438 12.6669V7.33359C14.1438 6.80316 13.9522 6.29445 13.6111 5.91938C13.27 5.5443 12.8074 5.33359 12.325 5.33359Z" fill="white"/>
</g>
<defs>
<clipPath id="clip0">
<rect x="0.199219" width="14.5507" height="16" fill="white"/>
</clipPath>
</defs>
</svg>
