<svg width="45" height="45" viewBox="0 0 45 45" fill="none" xmlns="http://www.w3.org/2000/svg">
<circle cx="22.5" cy="22.5" r="21.75" stroke="#208648" stroke-width="1.5"/>
<path d="M12.4917 29H21.1081V27.3061H15.2147V27.2102L17.8162 24.4872C20.2132 22.0646 20.8972 20.9077 20.8972 19.4439C20.8972 17.3409 19.1841 15.7301 16.7168 15.7301C14.2686 15.7301 12.4789 17.3153 12.4789 19.706H14.3645C14.3581 18.2997 15.2658 17.3793 16.6784 17.3793C18.008 17.3793 19.0179 18.1974 19.0179 19.5014C19.0179 20.6584 18.3276 21.4893 16.9213 22.9787L12.4917 27.5682V29ZM22.9746 26.4432H29.1813V29H31.0669V26.4432H32.7992V24.7685H31.0669V15.9091H28.6316L22.9746 24.8452V26.4432ZM29.1941 24.7685H25.0456V24.6662L29.0918 18.2614H29.1941V24.7685Z" fill="#208648"/>
</svg>
