<svg width="40" height="45" viewBox="0 0 40 45" fill="none" xmlns="http://www.w3.org/2000/svg">
<g clip-path="url(#clip0)">
<path d="M39.5051 0H21.6423C21.3273 0 21.1024 0.225 21.1024 0.54V5.535C21.1024 5.85 21.3273 6.075 21.6423 6.075H29.2013V10.035H15.658V6.66C15.658 6.48 15.5681 6.3 15.4331 6.21C15.2981 6.12 15.1181 6.075 14.9381 6.12L13.6783 6.57L12.4184 6.12C12.2835 6.075 12.1935 6.075 12.0585 6.12L10.7986 6.57L9.53881 6.12C9.40382 6.075 9.31384 6.075 9.17885 6.12L7.91901 6.57L6.65917 6.12C6.47919 6.075 6.29921 6.075 6.16423 6.21C6.02925 6.3 5.93926 6.48 5.93926 6.66V10.035H0.539933C0.224972 10.035 0 10.26 0 10.575V36.54V42.165C0 43.74 1.25984 45 2.83465 45H36.5804C38.1552 45 39.4151 43.74 39.4151 42.165V36.54V10.575C39.4151 10.26 39.1901 10.035 38.8751 10.035H31.901V6.075H39.4601C39.775 6.075 40 5.85 40 5.535V0.54C40.045 0.225 39.775 0 39.5051 0ZM16.018 14.85C16.063 14.85 16.153 14.895 16.198 14.895C16.243 14.895 16.288 14.94 16.333 14.94C16.378 14.985 16.4679 14.985 16.5129 15.03C16.5579 15.075 16.6029 15.075 16.6479 15.12C16.6929 15.165 16.7379 15.21 16.7829 15.255C16.8279 15.3 16.8729 15.3 16.9179 15.345C16.9629 15.39 17.0079 15.435 17.0529 15.48C17.0979 15.525 17.0979 15.57 17.1429 15.615C17.1879 15.66 17.1879 15.75 17.2328 15.795C17.2328 15.84 17.2778 15.885 17.3228 15.93C17.3678 16.02 17.3678 16.065 17.4128 16.155C17.4128 16.2 17.4578 16.245 17.4578 16.29C17.5028 16.425 17.5028 16.515 17.5028 16.65C17.5028 17.145 17.3228 17.595 16.9629 17.955C16.8729 18.045 16.7829 18.135 16.6929 18.18C16.6479 18.18 16.6479 18.225 16.6029 18.225C16.5129 18.27 16.4679 18.315 16.378 18.315C16.333 18.315 16.288 18.36 16.243 18.36C16.198 18.36 16.108 18.405 16.063 18.405C16.018 18.405 15.973 18.405 15.928 18.405C15.883 18.405 15.838 18.405 15.748 18.405V14.76C15.793 14.76 15.838 14.76 15.928 14.76C15.883 14.85 15.973 14.85 16.018 14.85ZM5.71429 18.45C5.66929 18.45 5.5793 18.405 5.53431 18.405C5.48931 18.405 5.44432 18.36 5.39932 18.36C5.35433 18.315 5.26434 18.315 5.21935 18.27C5.17435 18.225 5.12936 18.225 5.08436 18.18C5.03937 18.135 4.99438 18.09 4.94938 18.045C4.90439 18 4.85939 18 4.8144 17.955C4.7694 17.91 4.72441 17.865 4.67941 17.775C4.63442 17.73 4.63442 17.685 4.58943 17.685C4.54443 17.64 4.49944 17.55 4.49944 17.505C4.49944 17.46 4.45444 17.415 4.45444 17.37C4.40945 17.28 4.40945 17.235 4.36445 17.145C4.36445 17.1 4.31946 17.055 4.31946 17.055C4.27447 16.92 4.27447 16.83 4.27447 16.695C4.27447 16.2 4.45444 15.75 4.8144 15.39C4.90439 15.3 4.99438 15.21 5.08436 15.165C5.12936 15.165 5.17435 15.12 5.17435 15.12C5.21935 15.075 5.30934 15.03 5.39932 15.03C5.44432 15.03 5.48931 14.985 5.53431 14.985C5.5793 14.985 5.66929 14.94 5.71429 14.94C5.75928 14.94 5.80427 14.94 5.84927 14.94C5.89426 14.94 5.98425 14.94 6.02925 14.94V18.45C5.98425 18.45 5.93926 18.45 5.84927 18.45C5.80427 18.45 5.75928 18.45 5.71429 18.45ZM7.10911 7.425L7.82902 7.65C7.964 7.695 8.05399 7.695 8.18898 7.65L9.44882 7.2L10.7087 7.65C10.8436 7.695 10.9336 7.695 11.0686 7.65L12.3285 7.2L13.5883 7.65C13.7233 7.695 13.8133 7.695 13.9483 7.65L14.6682 7.425V10.575V14.265V18.45H7.10911V14.265V10.575V7.425ZM36.6704 43.92H2.92463C1.97975 43.92 1.16985 43.155 1.16985 42.165V37.08H38.4252V42.165C38.4252 43.155 37.6153 43.92 36.6704 43.92ZM38.4252 36H1.16985V11.115H6.02925V13.725C5.93926 13.725 5.84927 13.77 5.71429 13.77C5.6243 13.77 5.5793 13.77 5.48931 13.815C5.35433 13.86 5.26434 13.86 5.17435 13.905C5.12936 13.905 5.03937 13.95 4.99438 13.95C4.85939 13.995 4.7694 14.085 4.63442 14.13C4.58943 14.175 4.54443 14.175 4.49944 14.22C4.36445 14.31 4.18448 14.445 4.04949 14.58C3.50956 15.12 3.1946 15.84 3.1946 16.65C3.1946 18.27 4.49944 19.575 6.11924 19.575H15.658C16.4229 19.575 17.1429 19.26 17.7278 18.72C18.2677 18.18 18.5827 17.46 18.5827 16.65C18.5827 16.47 18.5827 16.245 18.5377 16.065C18.5377 16.02 18.4927 15.93 18.4927 15.885C18.4477 15.75 18.4477 15.615 18.3577 15.525C18.3127 15.48 18.3127 15.39 18.2677 15.345C18.2227 15.255 18.1777 15.12 18.0877 15.03C18.0427 14.985 17.9978 14.895 17.9528 14.85C17.8628 14.76 17.8178 14.67 17.7278 14.58C17.6828 14.535 17.5928 14.49 17.5478 14.445C17.4578 14.355 17.3678 14.31 17.2778 14.22C17.2328 14.175 17.1429 14.13 17.0529 14.085C16.9629 14.04 16.8729 13.995 16.7829 13.95C16.6929 13.905 16.6029 13.905 16.5579 13.86C16.4679 13.815 16.378 13.77 16.243 13.77C16.153 13.77 16.063 13.77 15.973 13.725C15.883 13.725 15.793 13.68 15.703 13.68V11.07H38.4252V36ZM30.8211 9.99H30.2812V6.075H30.8211V9.99ZM38.9651 4.995H31.3611H29.7413H22.1822V1.08H23.4871L22.9471 1.62C22.7672 1.8 22.7672 2.16 22.9471 2.385C23.0371 2.475 23.1721 2.565 23.3071 2.565C23.4421 2.565 23.5771 2.52 23.667 2.385L24.8369 1.215C24.8819 1.17 24.8819 1.125 24.9269 1.08H25.7368L23.4871 3.33C23.2621 3.555 23.2621 3.87 23.4871 4.095C23.5771 4.185 23.712 4.275 23.847 4.275C23.982 4.275 24.117 4.23 24.207 4.095L27.2216 1.08H38.9651V4.995Z" fill="#208648"/>
<path d="M7.10919 25.965H4.04958C3.73462 25.965 3.50964 26.19 3.50964 26.505V29.025C3.50964 29.34 3.73462 29.565 4.04958 29.565H7.10919C7.42415 29.565 7.64913 29.34 7.64913 29.025V26.505C7.64913 26.235 7.42415 25.965 7.10919 25.965ZM6.56926 28.485H4.58951V27.045H6.56926V28.485Z" fill="#578459"/>
<path d="M12.5085 25.965H9.44887C9.13391 25.965 8.90894 26.19 8.90894 26.505V29.025C8.90894 29.34 9.13391 29.565 9.44887 29.565H12.5085C12.8234 29.565 13.0484 29.34 13.0484 29.025V26.505C13.0484 26.235 12.7785 25.965 12.5085 25.965ZM11.9686 28.485H9.9888V27.045H11.9686V28.485Z" fill="#578459"/>
<path d="M17.863 25.965H14.8034C14.4884 25.965 14.2634 26.19 14.2634 26.505V29.025C14.2634 29.34 14.4884 29.565 14.8034 29.565H17.863C18.1779 29.565 18.4029 29.34 18.4029 29.025V26.505C18.4029 26.235 18.1779 25.965 17.863 25.965ZM17.323 28.485H15.3433V27.045H17.323V28.485Z" fill="#578459"/>
<path d="M7.10919 21.24H4.04958C3.73462 21.24 3.50964 21.465 3.50964 21.78V24.3C3.50964 24.615 3.73462 24.84 4.04958 24.84H7.10919C7.42415 24.84 7.64913 24.615 7.64913 24.3V21.78C7.64913 21.465 7.42415 21.24 7.10919 21.24ZM6.56926 23.76H4.58951V22.32H6.56926V23.76Z" fill="#578459"/>
<path d="M12.5085 21.24H9.44887C9.13391 21.24 8.90894 21.465 8.90894 21.78V24.3C8.90894 24.615 9.13391 24.84 9.44887 24.84H12.5085C12.8234 24.84 13.0484 24.615 13.0484 24.3V21.78C13.0484 21.465 12.7785 21.24 12.5085 21.24ZM11.9686 23.76H9.9888V22.32H11.9686V23.76Z" fill="#578459"/>
<path d="M17.863 21.24H14.8034C14.4884 21.24 14.2634 21.465 14.2634 21.78V24.3C14.2634 24.615 14.4884 24.84 14.8034 24.84H17.863C18.1779 24.84 18.4029 24.615 18.4029 24.3V21.78C18.4029 21.465 18.1779 21.24 17.863 21.24ZM17.323 23.76H15.3433V22.32H17.323V23.76Z" fill="#578459"/>
<path d="M7.10919 30.915H4.04958C3.73462 30.915 3.50964 31.14 3.50964 31.455V33.975C3.50964 34.29 3.73462 34.515 4.04958 34.515H7.10919C7.42415 34.515 7.64913 34.29 7.64913 33.975V31.455C7.64913 31.14 7.42415 30.915 7.10919 30.915ZM6.56926 33.39H4.58951V31.95H6.56926V33.39Z" fill="#578459"/>
<path d="M12.5085 30.915H9.44887C9.13391 30.915 8.90894 31.14 8.90894 31.455V33.975C8.90894 34.29 9.13391 34.515 9.44887 34.515H12.5085C12.8234 34.515 13.0484 34.29 13.0484 33.975V31.455C13.0484 31.14 12.7785 30.915 12.5085 30.915ZM11.9686 33.39H9.9888V31.95H11.9686V33.39Z" fill="#578459"/>
<path d="M17.863 30.915H14.8034C14.4884 30.915 14.2634 31.14 14.2634 31.455V33.975C14.2634 34.29 14.4884 34.515 14.8034 34.515H17.863C18.1779 34.515 18.4029 34.29 18.4029 33.975V31.455C18.4029 31.14 18.1779 30.915 17.863 30.915ZM17.323 33.39H15.3433V31.95H17.323V33.39Z" fill="#578459"/>
<path d="M23.8469 29.205H26.5916C26.9066 29.205 27.1315 28.98 27.1315 28.665V25.965C27.1315 25.65 26.9066 25.425 26.5916 25.425H23.8469C23.532 25.425 23.307 25.65 23.307 25.965V28.665C23.307 28.98 23.532 29.205 23.8469 29.205ZM24.3869 26.55H26.0517V28.17H24.3869V26.55Z" fill="#578459"/>
<path d="M31.3614 25.47H28.6167C28.3018 25.47 28.0768 25.695 28.0768 26.01V28.71C28.0768 29.025 28.3018 29.25 28.6167 29.25H31.3614C31.6763 29.25 31.9013 29.025 31.9013 28.71V26.01C31.9013 25.695 31.6313 25.47 31.3614 25.47ZM30.8214 28.125H29.1566V26.55H30.8214V28.125Z" fill="#578459"/>
<path d="M36.1305 25.47H33.3859C33.0709 25.47 32.8459 25.695 32.8459 26.01V28.71C32.8459 29.025 33.0709 29.25 33.3859 29.25H36.1305C36.4455 29.25 36.6705 29.025 36.6705 28.71V26.01C36.6705 25.695 36.4455 25.47 36.1305 25.47ZM35.5906 28.125H33.9258V26.55H35.5906V28.125Z" fill="#578459"/>
<path d="M23.8469 34.4699H26.5916C26.9066 34.4699 27.1315 34.2449 27.1315 33.9299V31.2299C27.1315 30.9149 26.9066 30.6899 26.5916 30.6899H23.8469C23.532 30.6899 23.307 30.9149 23.307 31.2299V33.9299C23.307 34.2449 23.532 34.4699 23.8469 34.4699ZM24.3869 31.7699H26.0517V33.3899H24.3869V31.7699Z" fill="#578459"/>
<path d="M31.3614 30.6899H28.6167C28.3018 30.6899 28.0768 30.9149 28.0768 31.2299V33.9299C28.0768 34.2449 28.3018 34.4699 28.6167 34.4699H31.3614C31.6763 34.4699 31.9013 34.2449 31.9013 33.9299V31.2299C31.9013 30.9599 31.6313 30.6899 31.3614 30.6899ZM30.8214 33.3899H29.1566V31.7699H30.8214V33.3899Z" fill="#578459"/>
<path d="M36.1305 30.6899H33.3859C33.0709 30.6899 32.8459 30.9149 32.8459 31.2299V33.9299C32.8459 34.2449 33.0709 34.4699 33.3859 34.4699H36.1305C36.4455 34.4699 36.6705 34.2449 36.6705 33.9299V31.2299C36.6705 30.9599 36.4455 30.6899 36.1305 30.6899ZM35.5906 33.3899H33.9258V31.7699H35.5906V33.3899Z" fill="#578459"/>
<path d="M19.7978 38.475C18.673 38.475 17.7731 39.375 17.7731 40.5C17.7731 41.625 18.673 42.525 19.7978 42.525C20.9227 42.525 21.8226 41.625 21.8226 40.5C21.8226 39.375 20.9227 38.475 19.7978 38.475ZM19.7978 41.445C19.2579 41.445 18.8529 41.04 18.8529 40.5C18.8529 39.96 19.2579 39.555 19.7978 39.555C20.3378 39.555 20.7427 39.96 20.7427 40.5C20.7427 41.04 20.3378 41.445 19.7978 41.445Z" fill="#578459"/>
<path d="M23.8469 23.5799H36.1304C36.4454 23.5799 36.6703 23.3549 36.6703 23.0399V13.2299C36.6703 12.9149 36.4454 12.6899 36.1304 12.6899H23.8469C23.532 12.6899 23.307 12.9149 23.307 13.2299V23.0399C23.307 23.3099 23.532 23.5799 23.8469 23.5799ZM24.3869 13.7699H31.361L29.8312 15.2999C29.6062 15.5249 29.6062 15.8399 29.8312 16.0649C29.9212 16.1549 30.0562 16.2449 30.1911 16.2449C30.3261 16.2449 30.4611 16.1999 30.5511 16.0649L32.8908 13.7249H33.7457L29.9662 17.5499C29.7412 17.7749 29.7412 18.0899 29.9662 18.3149C30.0562 18.4049 30.1911 18.4949 30.3261 18.4949C30.4611 18.4949 30.5961 18.4499 30.6861 18.3149L35.0955 13.9049C35.1405 13.8599 35.1405 13.8149 35.1855 13.7699H35.5455V22.4999H24.3869V13.7699Z" fill="#578459"/>
<path d="M8.63881 11.7H13.2282C13.5432 11.7 13.7682 11.475 13.7682 11.16C13.7682 10.845 13.5432 10.62 13.2282 10.62H8.63881C8.32385 10.62 8.09888 10.845 8.09888 11.16C8.09888 11.475 8.32385 11.7 8.63881 11.7Z" fill="#578459"/>
<path d="M8.63881 13.545H11.3835C11.6984 13.545 11.9234 13.32 11.9234 13.005C11.9234 12.69 11.6984 12.465 11.3835 12.465H8.63881C8.32385 12.465 8.09888 12.69 8.09888 13.005C8.09888 13.32 8.32385 13.545 8.63881 13.545Z" fill="#578459"/>
</g>
<defs>
<clipPath id="clip0">
<rect width="40" height="45" fill="white"/>
</clipPath>
</defs>
</svg>
