<svg width="1920" height="840" viewBox="0 0 1920 840" fill="none" xmlns="http://www.w3.org/2000/svg">
<g filter="url(#filter0_di)">
<mask id="path-1-outside-1" maskUnits="userSpaceOnUse" x="-9" y="-9.40063" width="1938" height="816" fill="black">
<rect fill="white" x="-9" y="-9.40063" width="1938" height="816"/>
<path fill-rule="evenodd" clip-rule="evenodd" d="M124.941 -0.400635C124.941 -0.400614 124.941 -0.400594 124.941 -0.400574H0V451.059L576.667 704.17H577.33C692.127 763.498 822.406 797 960.5 797C1098.59 797 1228.87 763.498 1343.67 704.17H1344.67L1920 451.059V-0.400574H1796.06L124.941 -0.400635Z"/>
</mask>
<path fill-rule="evenodd" clip-rule="evenodd" d="M124.941 -0.400635C124.941 -0.400614 124.941 -0.400594 124.941 -0.400574H0V451.059L576.667 704.17H577.33C692.127 763.498 822.406 797 960.5 797C1098.59 797 1228.87 763.498 1343.67 704.17H1344.67L1920 451.059V-0.400574H1796.06L124.941 -0.400635Z" fill="url(#paint0_linear)"/>
<path d="M124.941 -0.400635V-9.40063H115.941V-0.400635H124.941ZM124.941 -0.400574V8.59943H133.941V-0.400574H124.941ZM0 -0.400574V-9.40057H-9V-0.400574H0ZM0 451.059H-9V456.938L-3.6172 459.3L0 451.059ZM576.667 704.17L573.049 712.411L574.779 713.17H576.667V704.17ZM577.33 704.17L581.462 696.175L579.518 695.17H577.33V704.17ZM1343.67 704.17V695.17H1341.48L1339.54 696.175L1343.67 704.17ZM1344.67 704.17V713.17H1346.56L1348.29 712.408L1344.67 704.17ZM1920 451.059L1923.62 459.297L1929 456.932V451.059H1920ZM1920 -0.400574H1929V-9.40057H1920V-0.400574ZM1796.06 -0.400574V8.59943V-0.400574ZM115.941 -0.400635C115.941 -0.400635 115.941 -0.400635 115.941 -0.400635C115.941 -0.400635 115.941 -0.400635 115.941 -0.400635C115.941 -0.400634 115.941 -0.400634 115.941 -0.400634C115.941 -0.400634 115.941 -0.400634 115.941 -0.400634C115.941 -0.400634 115.941 -0.400634 115.941 -0.400634C115.941 -0.400634 115.941 -0.400634 115.941 -0.400634C115.941 -0.400634 115.941 -0.400634 115.941 -0.400634C115.941 -0.400634 115.941 -0.400634 115.941 -0.400634C115.941 -0.400634 115.941 -0.400634 115.941 -0.400634C115.941 -0.400634 115.941 -0.400634 115.941 -0.400634C115.941 -0.400634 115.941 -0.400633 115.941 -0.400633C115.941 -0.400633 115.941 -0.400633 115.941 -0.400633C115.941 -0.400633 115.941 -0.400633 115.941 -0.400633C115.941 -0.400633 115.941 -0.400633 115.941 -0.400633C115.941 -0.400633 115.941 -0.400633 115.941 -0.400633C115.941 -0.400633 115.941 -0.400633 115.941 -0.400633C115.941 -0.400633 115.941 -0.400633 115.941 -0.400633C115.941 -0.400633 115.941 -0.400633 115.941 -0.400633C115.941 -0.400633 115.941 -0.400633 115.941 -0.400633C115.941 -0.400632 115.941 -0.400632 115.941 -0.400632C115.941 -0.400632 115.941 -0.400632 115.941 -0.400632C115.941 -0.400632 115.941 -0.400632 115.941 -0.400632C115.941 -0.400632 115.941 -0.400632 115.941 -0.400632C115.941 -0.400632 115.941 -0.400632 115.941 -0.400632C115.941 -0.400632 115.941 -0.400632 115.941 -0.400632C115.941 -0.400632 115.941 -0.400632 115.941 -0.400632C115.941 -0.400632 115.941 -0.400632 115.941 -0.400632C115.941 -0.400632 115.941 -0.400631 115.941 -0.400631C115.941 -0.400631 115.941 -0.400631 115.941 -0.400631C115.941 -0.400631 115.941 -0.400631 115.941 -0.400631C115.941 -0.400631 115.941 -0.400631 115.941 -0.400631C115.941 -0.400631 115.941 -0.400631 115.941 -0.400631C115.941 -0.400631 115.941 -0.400631 115.941 -0.400631C115.941 -0.400631 115.941 -0.400631 115.941 -0.400631C115.941 -0.400631 115.941 -0.400631 115.941 -0.400631C115.941 -0.400631 115.941 -0.400631 115.941 -0.40063C115.941 -0.40063 115.941 -0.40063 115.941 -0.40063C115.941 -0.40063 115.941 -0.40063 115.941 -0.40063C115.941 -0.40063 115.941 -0.40063 115.941 -0.40063C115.941 -0.40063 115.941 -0.40063 115.941 -0.40063C115.941 -0.40063 115.941 -0.40063 115.941 -0.40063C115.941 -0.40063 115.941 -0.40063 115.941 -0.40063C115.941 -0.40063 115.941 -0.40063 115.941 -0.40063C115.941 -0.40063 115.941 -0.40063 115.941 -0.40063C115.941 -0.400629 115.941 -0.400629 115.941 -0.400629C115.941 -0.400629 115.941 -0.400629 115.941 -0.400629C115.941 -0.400629 115.941 -0.400629 115.941 -0.400629C115.941 -0.400629 115.941 -0.400629 115.941 -0.400629C115.941 -0.400629 115.941 -0.400629 115.941 -0.400629C115.941 -0.400629 115.941 -0.400629 115.941 -0.400629C115.941 -0.400629 115.941 -0.400629 115.941 -0.400629C115.941 -0.400629 115.941 -0.400629 115.941 -0.400629C115.941 -0.400629 115.941 -0.400628 115.941 -0.400628C115.941 -0.400628 115.941 -0.400628 115.941 -0.400628C115.941 -0.400628 115.941 -0.400628 115.941 -0.400628C115.941 -0.400628 115.941 -0.400628 115.941 -0.400628C115.941 -0.400628 115.941 -0.400628 115.941 -0.400628C115.941 -0.400628 115.941 -0.400628 115.941 -0.400628C115.941 -0.400628 115.941 -0.400628 115.941 -0.400628C115.941 -0.400628 115.941 -0.400628 115.941 -0.400628C115.941 -0.400628 115.941 -0.400628 115.941 -0.400627C115.941 -0.400627 115.941 -0.400627 115.941 -0.400627C115.941 -0.400627 115.941 -0.400627 115.941 -0.400627C115.941 -0.400627 115.941 -0.400627 115.941 -0.400627C115.941 -0.400627 115.941 -0.400627 115.941 -0.400627C115.941 -0.400627 115.941 -0.400627 115.941 -0.400627C115.941 -0.400627 115.941 -0.400627 115.941 -0.400627C115.941 -0.400627 115.941 -0.400627 115.941 -0.400627C115.941 -0.400627 115.941 -0.400627 115.941 -0.400627C115.941 -0.400627 115.941 -0.400626 115.941 -0.400626C115.941 -0.400626 115.941 -0.400626 115.941 -0.400626C115.941 -0.400626 115.941 -0.400626 115.941 -0.400626C115.941 -0.400626 115.941 -0.400626 115.941 -0.400626C115.941 -0.400626 115.941 -0.400626 115.941 -0.400626C115.941 -0.400626 115.941 -0.400626 115.941 -0.400626C115.941 -0.400626 115.941 -0.400626 115.941 -0.400626C115.941 -0.400626 115.941 -0.400626 115.941 -0.400626C115.941 -0.400626 115.941 -0.400626 115.941 -0.400625C115.941 -0.400625 115.941 -0.400625 115.941 -0.400625C115.941 -0.400625 115.941 -0.400625 115.941 -0.400625C115.941 -0.400625 115.941 -0.400625 115.941 -0.400625C115.941 -0.400625 115.941 -0.400625 115.941 -0.400625C115.941 -0.400625 115.941 -0.400625 115.941 -0.400625C115.941 -0.400625 115.941 -0.400625 115.941 -0.400625C115.941 -0.400625 115.941 -0.400625 115.941 -0.400625C115.941 -0.400625 115.941 -0.400625 115.941 -0.400625C115.941 -0.400624 115.941 -0.400624 115.941 -0.400624C115.941 -0.400624 115.941 -0.400624 115.941 -0.400624C115.941 -0.400624 115.941 -0.400624 115.941 -0.400624C115.941 -0.400624 115.941 -0.400624 115.941 -0.400624C115.941 -0.400624 115.941 -0.400624 115.941 -0.400624C115.941 -0.400624 115.941 -0.400624 115.941 -0.400624C115.941 -0.400624 115.941 -0.400624 115.941 -0.400624C115.941 -0.400624 115.941 -0.400624 115.941 -0.400624C115.941 -0.400624 115.941 -0.400623 115.941 -0.400623C115.941 -0.400623 115.941 -0.400623 115.941 -0.400623C115.941 -0.400623 115.941 -0.400623 115.941 -0.400623C115.941 -0.400623 115.941 -0.400623 115.941 -0.400623C115.941 -0.400623 115.941 -0.400623 115.941 -0.400623C115.941 -0.400623 115.941 -0.400623 115.941 -0.400623C115.941 -0.400623 115.941 -0.400623 115.941 -0.400623C115.941 -0.400623 115.941 -0.400623 115.941 -0.400623C115.941 -0.400623 115.941 -0.400623 115.941 -0.400622C115.941 -0.400622 115.941 -0.400622 115.941 -0.400622C115.941 -0.400622 115.941 -0.400622 115.941 -0.400622C115.941 -0.400622 115.941 -0.400622 115.941 -0.400622C115.941 -0.400622 115.941 -0.400622 115.941 -0.400622C115.941 -0.400622 115.941 -0.400622 115.941 -0.400622C115.941 -0.400622 115.941 -0.400622 115.941 -0.400622C115.941 -0.400622 115.941 -0.400622 115.941 -0.400622C115.941 -0.400622 115.941 -0.400622 115.941 -0.400622C115.941 -0.400621 115.941 -0.400621 115.941 -0.400621C115.941 -0.400621 115.941 -0.400621 115.941 -0.400621C115.941 -0.400621 115.941 -0.400621 115.941 -0.400621C115.941 -0.400621 115.941 -0.400621 115.941 -0.400621C115.941 -0.400621 115.941 -0.400621 115.941 -0.400621C115.941 -0.400621 115.941 -0.400621 115.941 -0.400621C115.941 -0.400621 115.941 -0.400621 115.941 -0.400621C115.941 -0.400621 115.941 -0.400621 115.941 -0.400621C115.941 -0.400621 115.941 -0.400621 115.941 -0.40062C115.941 -0.40062 115.941 -0.40062 115.941 -0.40062C115.941 -0.40062 115.941 -0.40062 115.941 -0.40062C115.941 -0.40062 115.941 -0.40062 115.941 -0.40062C115.941 -0.40062 115.941 -0.40062 115.941 -0.40062C115.941 -0.40062 115.941 -0.40062 115.941 -0.40062C115.941 -0.40062 115.941 -0.40062 115.941 -0.40062C115.941 -0.40062 115.941 -0.40062 115.941 -0.40062C115.941 -0.40062 115.941 -0.40062 115.941 -0.40062C115.941 -0.400619 115.941 -0.400619 115.941 -0.400619C115.941 -0.400619 115.941 -0.400619 115.941 -0.400619C115.941 -0.400619 115.941 -0.400619 115.941 -0.400619C115.941 -0.400619 115.941 -0.400619 115.941 -0.400619C115.941 -0.400619 115.941 -0.400619 115.941 -0.400619C115.941 -0.400619 115.941 -0.400619 115.941 -0.400619C115.941 -0.400619 115.941 -0.400619 115.941 -0.400619C115.941 -0.400619 115.941 -0.400619 115.941 -0.400619C115.941 -0.400619 115.941 -0.400618 115.941 -0.400618C115.941 -0.400618 115.941 -0.400618 115.941 -0.400618C115.941 -0.400618 115.941 -0.400618 115.941 -0.400618C115.941 -0.400618 115.941 -0.400618 115.941 -0.400618C115.941 -0.400618 115.941 -0.400618 115.941 -0.400618C115.941 -0.400618 115.941 -0.400618 115.941 -0.400618C115.941 -0.400618 115.941 -0.400618 115.941 -0.400618C115.941 -0.400618 115.941 -0.400618 115.941 -0.400618C115.941 -0.400618 115.941 -0.400618 115.941 -0.400617C115.941 -0.400617 115.941 -0.400617 115.941 -0.400617C115.941 -0.400617 115.941 -0.400617 115.941 -0.400617C115.941 -0.400617 115.941 -0.400617 115.941 -0.400617C115.941 -0.400617 115.941 -0.400617 115.941 -0.400617C115.941 -0.400617 115.941 -0.400617 115.941 -0.400617C115.941 -0.400617 115.941 -0.400617 115.941 -0.400617C115.941 -0.400617 115.941 -0.400617 115.941 -0.400617C115.941 -0.400617 115.941 -0.400617 115.941 -0.400617C115.941 -0.400616 115.941 -0.400616 115.941 -0.400616C115.941 -0.400616 115.941 -0.400616 115.941 -0.400616C115.941 -0.400616 115.941 -0.400616 115.941 -0.400616C115.941 -0.400616 115.941 -0.400616 115.941 -0.400616C115.941 -0.400616 115.941 -0.400616 115.941 -0.400616C115.941 -0.400616 115.941 -0.400616 115.941 -0.400616C115.941 -0.400616 115.941 -0.400616 115.941 -0.400616C115.941 -0.400616 115.941 -0.400616 115.941 -0.400616C115.941 -0.400616 115.941 -0.400615 115.941 -0.400615C115.941 -0.400615 115.941 -0.400615 115.941 -0.400615C115.941 -0.400615 115.941 -0.400615 115.941 -0.400615C115.941 -0.400615 115.941 -0.400615 115.941 -0.400615C115.941 -0.400615 115.941 -0.400615 115.941 -0.400615C115.941 -0.400615 115.941 -0.400615 115.941 -0.400615C115.941 -0.400615 115.941 -0.400615 115.941 -0.400615C115.941 -0.400615 115.941 -0.400615 115.941 -0.400615C115.941 -0.400615 115.941 -0.400615 115.941 -0.400615C115.941 -0.400614 115.941 -0.400614 115.941 -0.400614C115.941 -0.400614 115.941 -0.400614 115.941 -0.400614C115.941 -0.400614 115.941 -0.400614 115.941 -0.400614C115.941 -0.400614 115.941 -0.400614 115.941 -0.400614C115.941 -0.400614 115.941 -0.400614 115.941 -0.400614C115.941 -0.400614 115.941 -0.400614 115.941 -0.400614C115.941 -0.400614 115.941 -0.400614 115.941 -0.400614C115.941 -0.400614 115.941 -0.400614 115.941 -0.400614C115.941 -0.400614 115.941 -0.400613 115.941 -0.400613C115.941 -0.400613 115.941 -0.400613 115.941 -0.400613C115.941 -0.400613 115.941 -0.400613 115.941 -0.400613C115.941 -0.400613 115.941 -0.400613 115.941 -0.400613C115.941 -0.400613 115.941 -0.400613 115.941 -0.400613C115.941 -0.400613 115.941 -0.400613 115.941 -0.400613C115.941 -0.400613 115.941 -0.400613 115.941 -0.400613C115.941 -0.400613 115.941 -0.400613 115.941 -0.400613C115.941 -0.400613 115.941 -0.400613 115.941 -0.400612C115.941 -0.400612 115.941 -0.400612 115.941 -0.400612C115.941 -0.400612 115.941 -0.400612 115.941 -0.400612C115.941 -0.400612 115.941 -0.400612 115.941 -0.400612C115.941 -0.400612 115.941 -0.400612 115.941 -0.400612C115.941 -0.400612 115.941 -0.400612 115.941 -0.400612C115.941 -0.400612 115.941 -0.400612 115.941 -0.400612C115.941 -0.400612 115.941 -0.400612 115.941 -0.400612C115.941 -0.400612 115.941 -0.400612 115.941 -0.400612C115.941 -0.400611 115.941 -0.400611 115.941 -0.400611C115.941 -0.400611 115.941 -0.400611 115.941 -0.400611C115.941 -0.400611 115.941 -0.400611 115.941 -0.400611C115.941 -0.400611 115.941 -0.400611 115.941 -0.400611C115.941 -0.400611 115.941 -0.400611 115.941 -0.400611C115.941 -0.400611 115.941 -0.400611 115.941 -0.400611C115.941 -0.400611 115.941 -0.400611 115.941 -0.400611C115.941 -0.400611 115.941 -0.400611 115.941 -0.400611C115.941 -0.400611 115.941 -0.40061 115.941 -0.40061C115.941 -0.40061 115.941 -0.40061 115.941 -0.40061C115.941 -0.40061 115.941 -0.40061 115.941 -0.40061C115.941 -0.40061 115.941 -0.40061 115.941 -0.40061C115.941 -0.40061 115.941 -0.40061 115.941 -0.40061C115.941 -0.40061 115.941 -0.40061 115.941 -0.40061C115.941 -0.40061 115.941 -0.40061 115.941 -0.40061C115.941 -0.40061 115.941 -0.40061 115.941 -0.40061C115.941 -0.40061 115.941 -0.40061 115.941 -0.400609C115.941 -0.400609 115.941 -0.400609 115.941 -0.400609C115.941 -0.400609 115.941 -0.400609 115.941 -0.400609C115.941 -0.400609 115.941 -0.400609 115.941 -0.400609C115.941 -0.400609 115.941 -0.400609 115.941 -0.400609C115.941 -0.400609 115.941 -0.400609 115.941 -0.400609C115.941 -0.400609 115.941 -0.400609 115.941 -0.400609C115.941 -0.400609 115.941 -0.400609 115.941 -0.400609C115.941 -0.400609 115.941 -0.400609 115.941 -0.400609C115.941 -0.400608 115.941 -0.400608 115.941 -0.400608C115.941 -0.400608 115.941 -0.400608 115.941 -0.400608C115.941 -0.400608 115.941 -0.400608 115.941 -0.400608C115.941 -0.400608 115.941 -0.400608 115.941 -0.400608C115.941 -0.400608 115.941 -0.400608 115.941 -0.400608C115.941 -0.400608 115.941 -0.400608 115.941 -0.400608C115.941 -0.400608 115.941 -0.400608 115.941 -0.400608C115.941 -0.400608 115.941 -0.400608 115.941 -0.400608C115.941 -0.400608 115.941 -0.400608 115.941 -0.400607C115.941 -0.400607 115.941 -0.400607 115.941 -0.400607C115.941 -0.400607 115.941 -0.400607 115.941 -0.400607C115.941 -0.400607 115.941 -0.400607 115.941 -0.400607C115.941 -0.400607 115.941 -0.400607 115.941 -0.400607C115.941 -0.400607 115.941 -0.400607 115.941 -0.400607C115.941 -0.400607 115.941 -0.400607 115.941 -0.400607C115.941 -0.400607 115.941 -0.400607 115.941 -0.400607C115.941 -0.400607 115.941 -0.400607 115.941 -0.400607C115.941 -0.400606 115.941 -0.400606 115.941 -0.400606C115.941 -0.400606 115.941 -0.400606 115.941 -0.400606C115.941 -0.400606 115.941 -0.400606 115.941 -0.400606C115.941 -0.400606 115.941 -0.400606 115.941 -0.400606C115.941 -0.400606 115.941 -0.400606 115.941 -0.400606C115.941 -0.400606 115.941 -0.400606 115.941 -0.400606C115.941 -0.400606 115.941 -0.400606 115.941 -0.400606C115.941 -0.400606 115.941 -0.400606 115.941 -0.400606C115.941 -0.400606 115.941 -0.400605 115.941 -0.400605C115.941 -0.400605 115.941 -0.400605 115.941 -0.400605C115.941 -0.400605 115.941 -0.400605 115.941 -0.400605C115.941 -0.400605 115.941 -0.400605 115.941 -0.400605C115.941 -0.400605 115.941 -0.400605 115.941 -0.400605C115.941 -0.400605 115.941 -0.400605 115.941 -0.400605C115.941 -0.400605 115.941 -0.400605 115.941 -0.400605C115.941 -0.400605 115.941 -0.400605 115.941 -0.400605C115.941 -0.400605 115.941 -0.400605 115.941 -0.400604C115.941 -0.400604 115.941 -0.400604 115.941 -0.400604C115.941 -0.400604 115.941 -0.400604 115.941 -0.400604C115.941 -0.400604 115.941 -0.400604 115.941 -0.400604C115.941 -0.400604 115.941 -0.400604 115.941 -0.400604C115.941 -0.400604 115.941 -0.400604 115.941 -0.400604C115.941 -0.400604 115.941 -0.400604 115.941 -0.400604C115.941 -0.400604 115.941 -0.400604 115.941 -0.400604C115.941 -0.400604 115.941 -0.400604 115.941 -0.400604C115.941 -0.400603 115.941 -0.400603 115.941 -0.400603C115.941 -0.400603 115.941 -0.400603 115.941 -0.400603C115.941 -0.400603 115.941 -0.400603 115.941 -0.400603C115.941 -0.400603 115.941 -0.400603 115.941 -0.400603C115.941 -0.400603 115.941 -0.400603 115.941 -0.400603C115.941 -0.400603 115.941 -0.400603 115.941 -0.400603C115.941 -0.400603 115.941 -0.400603 115.941 -0.400603C115.941 -0.400603 115.941 -0.400603 115.941 -0.400603C115.941 -0.400603 115.941 -0.400602 115.941 -0.400602C115.941 -0.400602 115.941 -0.400602 115.941 -0.400602C115.941 -0.400602 115.941 -0.400602 115.941 -0.400602C115.941 -0.400602 115.941 -0.400602 115.941 -0.400602C115.941 -0.400602 115.941 -0.400602 115.941 -0.400602C115.941 -0.400602 115.941 -0.400602 115.941 -0.400602C115.941 -0.400602 115.941 -0.400602 115.941 -0.400602C115.941 -0.400602 115.941 -0.400602 115.941 -0.400602C115.941 -0.400602 115.941 -0.400602 115.941 -0.400602C115.941 -0.400601 115.941 -0.400601 115.941 -0.400601C115.941 -0.400601 115.941 -0.400601 115.941 -0.400601C115.941 -0.400601 115.941 -0.400601 115.941 -0.400601C115.941 -0.400601 115.941 -0.400601 115.941 -0.400601C115.941 -0.400601 115.941 -0.400601 115.941 -0.400601C115.941 -0.400601 115.941 -0.400601 115.941 -0.400601C115.941 -0.400601 115.941 -0.400601 115.941 -0.400601C115.941 -0.400601 115.941 -0.400601 115.941 -0.400601C115.941 -0.400601 115.941 -0.4006 115.941 -0.4006C115.941 -0.4006 115.941 -0.4006 115.941 -0.4006C115.941 -0.4006 115.941 -0.4006 115.941 -0.4006C115.941 -0.4006 115.941 -0.4006 115.941 -0.4006C115.941 -0.4006 115.941 -0.4006 115.941 -0.4006C115.941 -0.4006 115.941 -0.4006 115.941 -0.4006C115.941 -0.4006 115.941 -0.4006 115.941 -0.4006C115.941 -0.4006 115.941 -0.4006 115.941 -0.4006C115.941 -0.4006 115.941 -0.4006 115.941 -0.400599C115.941 -0.400599 115.941 -0.400599 115.941 -0.400599C115.941 -0.400599 115.941 -0.400599 115.941 -0.400599C115.941 -0.400599 115.941 -0.400599 115.941 -0.400599C115.941 -0.400599 115.941 -0.400599 115.941 -0.400599C115.941 -0.400599 115.941 -0.400599 115.941 -0.400599C115.941 -0.400599 115.941 -0.400599 115.941 -0.400599C115.941 -0.400599 115.941 -0.400599 115.941 -0.400599C115.941 -0.400599 115.941 -0.400599 115.941 -0.400599C115.941 -0.400598 115.941 -0.400598 115.941 -0.400598C115.941 -0.400598 115.941 -0.400598 115.941 -0.400598C115.941 -0.400598 115.941 -0.400598 115.941 -0.400598C115.941 -0.400598 115.941 -0.400598 115.941 -0.400598C115.941 -0.400598 115.941 -0.400598 115.941 -0.400598C115.941 -0.400598 115.941 -0.400598 115.941 -0.400598C115.941 -0.400598 115.941 -0.400598 115.941 -0.400598C115.941 -0.400598 115.941 -0.400598 115.941 -0.400598C115.941 -0.400598 115.941 -0.400597 115.941 -0.400597C115.941 -0.400597 115.941 -0.400597 115.941 -0.400597C115.941 -0.400597 115.941 -0.400597 115.941 -0.400597C115.941 -0.400597 115.941 -0.400597 115.941 -0.400597C115.941 -0.400597 115.941 -0.400597 115.941 -0.400597C115.941 -0.400597 115.941 -0.400597 115.941 -0.400597C115.941 -0.400597 115.941 -0.400597 115.941 -0.400597C115.941 -0.400597 115.941 -0.400597 115.941 -0.400597C115.941 -0.400597 115.941 -0.400597 115.941 -0.400596C115.941 -0.400596 115.941 -0.400596 115.941 -0.400596C115.941 -0.400596 115.941 -0.400596 115.941 -0.400596C115.941 -0.400596 115.941 -0.400596 115.941 -0.400596C115.941 -0.400596 115.941 -0.400596 115.941 -0.400596C115.941 -0.400596 115.941 -0.400596 115.941 -0.400596C115.941 -0.400596 115.941 -0.400596 115.941 -0.400596C115.941 -0.400596 115.941 -0.400596 115.941 -0.400596C115.941 -0.400596 115.941 -0.400596 115.941 -0.400596C115.941 -0.400596 115.941 -0.400595 115.941 -0.400595C115.941 -0.400595 115.941 -0.400595 115.941 -0.400595C115.941 -0.400595 115.941 -0.400595 115.941 -0.400595C115.941 -0.400595 115.941 -0.400595 115.941 -0.400595C115.941 -0.400595 115.941 -0.400595 115.941 -0.400595C115.941 -0.400595 115.941 -0.400595 115.941 -0.400595C115.941 -0.400595 115.941 -0.400595 115.941 -0.400595C115.941 -0.400595 115.941 -0.400595 115.941 -0.400595C115.941 -0.400595 115.941 -0.400595 115.941 -0.400594C115.941 -0.400594 115.941 -0.400594 115.941 -0.400594C115.941 -0.400594 115.941 -0.400594 115.941 -0.400594C115.941 -0.400594 115.941 -0.400594 115.941 -0.400594C115.941 -0.400594 115.941 -0.400594 115.941 -0.400594C115.941 -0.400594 115.941 -0.400594 115.941 -0.400594C115.941 -0.400594 115.941 -0.400594 115.941 -0.400594C115.941 -0.400594 115.941 -0.400594 115.941 -0.400594C115.941 -0.400594 115.941 -0.400594 115.941 -0.400594C115.941 -0.400593 115.941 -0.400593 115.941 -0.400593C115.941 -0.400593 115.941 -0.400593 115.941 -0.400593C115.941 -0.400593 115.941 -0.400593 115.941 -0.400593C115.941 -0.400593 115.941 -0.400593 115.941 -0.400593C115.941 -0.400593 115.941 -0.400593 115.941 -0.400593C115.941 -0.400593 115.941 -0.400593 115.941 -0.400593C115.941 -0.400593 115.941 -0.400593 115.941 -0.400593C115.941 -0.400593 115.941 -0.400593 115.941 -0.400593C115.941 -0.400593 115.941 -0.400592 115.941 -0.400592C115.941 -0.400592 115.941 -0.400592 115.941 -0.400592C115.941 -0.400592 115.941 -0.400592 115.941 -0.400592C115.941 -0.400592 115.941 -0.400592 115.941 -0.400592C115.941 -0.400592 115.941 -0.400592 115.941 -0.400592C115.941 -0.400592 115.941 -0.400592 115.941 -0.400592C115.941 -0.400592 115.941 -0.400592 115.941 -0.400592C115.941 -0.400592 115.941 -0.400592 115.941 -0.400592C115.941 -0.400592 115.941 -0.400592 115.941 -0.400591C115.941 -0.400591 115.941 -0.400591 115.941 -0.400591C115.941 -0.400591 115.941 -0.400591 115.941 -0.400591C115.941 -0.400591 115.941 -0.400591 115.941 -0.400591C115.941 -0.400591 115.941 -0.400591 115.941 -0.400591C115.941 -0.400591 115.941 -0.400591 115.941 -0.400591C115.941 -0.400591 115.941 -0.400591 115.941 -0.400591C115.941 -0.400591 115.941 -0.400591 115.941 -0.400591C115.941 -0.400591 115.941 -0.400591 115.941 -0.400591C115.941 -0.40059 115.941 -0.40059 115.941 -0.40059C115.941 -0.40059 115.941 -0.40059 115.941 -0.40059C115.941 -0.40059 115.941 -0.40059 115.941 -0.40059C115.941 -0.40059 115.941 -0.40059 115.941 -0.40059C115.941 -0.40059 115.941 -0.40059 115.941 -0.40059C115.941 -0.40059 115.941 -0.40059 115.941 -0.40059C115.941 -0.40059 115.941 -0.40059 115.941 -0.40059C115.941 -0.40059 115.941 -0.40059 115.941 -0.40059C115.941 -0.40059 115.941 -0.40059 115.941 -0.400589C115.941 -0.400589 115.941 -0.400589 115.941 -0.400589C115.941 -0.400589 115.941 -0.400589 115.941 -0.400589C115.941 -0.400589 115.941 -0.400589 115.941 -0.400589C115.941 -0.400589 115.941 -0.400589 115.941 -0.400589C115.941 -0.400589 115.941 -0.400589 115.941 -0.400589C115.941 -0.400589 115.941 -0.400589 115.941 -0.400589C115.941 -0.400589 115.941 -0.400589 115.941 -0.400589C115.941 -0.400589 115.941 -0.400589 115.941 -0.400589C115.941 -0.400588 115.941 -0.400588 115.941 -0.400588C115.941 -0.400588 115.941 -0.400588 115.941 -0.400588C115.941 -0.400588 115.941 -0.400588 115.941 -0.400588C115.941 -0.400588 115.941 -0.400588 115.941 -0.400588C115.941 -0.400588 115.941 -0.400588 115.941 -0.400588C115.941 -0.400588 115.941 -0.400588 115.941 -0.400588C115.941 -0.400588 115.941 -0.400588 115.941 -0.400588C115.941 -0.400588 115.941 -0.400588 115.941 -0.400588C115.941 -0.400588 115.941 -0.400587 115.941 -0.400587C115.941 -0.400587 115.941 -0.400587 115.941 -0.400587C115.941 -0.400587 115.941 -0.400587 115.941 -0.400587C115.941 -0.400587 115.941 -0.400587 115.941 -0.400587C115.941 -0.400587 115.941 -0.400587 115.941 -0.400587C115.941 -0.400587 115.941 -0.400587 115.941 -0.400587C115.941 -0.400587 115.941 -0.400587 115.941 -0.400587C115.941 -0.400587 115.941 -0.400587 115.941 -0.400587C115.941 -0.400587 115.941 -0.400587 115.941 -0.400586C115.941 -0.400586 115.941 -0.400586 115.941 -0.400586C115.941 -0.400586 115.941 -0.400586 115.941 -0.400586C115.941 -0.400586 115.941 -0.400586 115.941 -0.400586C115.941 -0.400586 115.941 -0.400586 115.941 -0.400586C115.941 -0.400586 115.941 -0.400586 115.941 -0.400586C115.941 -0.400586 115.941 -0.400586 115.941 -0.400586C115.941 -0.400586 115.941 -0.400586 115.941 -0.400586C115.941 -0.400586 115.941 -0.400586 115.941 -0.400586C115.941 -0.400585 115.941 -0.400585 115.941 -0.400585C115.941 -0.400585 115.941 -0.400585 115.941 -0.400585C115.941 -0.400585 115.941 -0.400585 115.941 -0.400585C115.941 -0.400585 115.941 -0.400585 115.941 -0.400585C115.941 -0.400585 115.941 -0.400585 115.941 -0.400585C115.941 -0.400585 115.941 -0.400585 115.941 -0.400585C115.941 -0.400585 115.941 -0.400585 115.941 -0.400585C115.941 -0.400585 115.941 -0.400585 115.941 -0.400585C115.941 -0.400585 115.941 -0.400584 115.941 -0.400584C115.941 -0.400584 115.941 -0.400584 115.941 -0.400584C115.941 -0.400584 115.941 -0.400584 115.941 -0.400584C115.941 -0.400584 115.941 -0.400584 115.941 -0.400584C115.941 -0.400584 115.941 -0.400584 115.941 -0.400584C115.941 -0.400584 115.941 -0.400584 115.941 -0.400584C115.941 -0.400584 115.941 -0.400584 115.941 -0.400584C115.941 -0.400584 115.941 -0.400584 115.941 -0.400584C115.941 -0.400584 115.941 -0.400584 115.941 -0.400584C115.941 -0.400583 115.941 -0.400583 115.941 -0.400583C115.941 -0.400583 115.941 -0.400583 115.941 -0.400583C115.941 -0.400583 115.941 -0.400583 115.941 -0.400583C115.941 -0.400583 115.941 -0.400583 115.941 -0.400583C115.941 -0.400583 115.941 -0.400583 115.941 -0.400583C115.941 -0.400583 115.941 -0.400583 115.941 -0.400583C115.941 -0.400583 115.941 -0.400583 115.941 -0.400583C115.941 -0.400583 115.941 -0.400583 115.941 -0.400583C115.941 -0.400583 115.941 -0.400582 115.941 -0.400582C115.941 -0.400582 115.941 -0.400582 115.941 -0.400582C115.941 -0.400582 115.941 -0.400582 115.941 -0.400582C115.941 -0.400582 115.941 -0.400582 115.941 -0.400582C115.941 -0.400582 115.941 -0.400582 115.941 -0.400582C115.941 -0.400582 115.941 -0.400582 115.941 -0.400582C115.941 -0.400582 115.941 -0.400582 115.941 -0.400582C115.941 -0.400582 115.941 -0.400582 115.941 -0.400582C115.941 -0.400582 115.941 -0.400582 115.941 -0.400581C115.941 -0.400581 115.941 -0.400581 115.941 -0.400581C115.941 -0.400581 115.941 -0.400581 115.941 -0.400581C115.941 -0.400581 115.941 -0.400581 115.941 -0.400581C115.941 -0.400581 115.941 -0.400581 115.941 -0.400581C115.941 -0.400581 115.941 -0.400581 115.941 -0.400581C115.941 -0.400581 115.941 -0.400581 115.941 -0.400581C115.941 -0.400581 115.941 -0.400581 115.941 -0.400581C115.941 -0.400581 115.941 -0.400581 115.941 -0.400581C115.941 -0.40058 115.941 -0.40058 115.941 -0.40058C115.941 -0.40058 115.941 -0.40058 115.941 -0.40058C115.941 -0.40058 115.941 -0.40058 115.941 -0.40058C115.941 -0.40058 115.941 -0.40058 115.941 -0.40058C115.941 -0.40058 115.941 -0.40058 115.941 -0.40058C115.941 -0.40058 115.941 -0.40058 115.941 -0.40058C115.941 -0.40058 115.941 -0.40058 115.941 -0.40058C115.941 -0.40058 115.941 -0.40058 115.941 -0.40058C115.941 -0.40058 115.941 -0.400579 115.941 -0.400579C115.941 -0.400579 115.941 -0.400579 115.941 -0.400579C115.941 -0.400579 115.941 -0.400579 115.941 -0.400579C115.941 -0.400579 115.941 -0.400579 115.941 -0.400579C115.941 -0.400579 115.941 -0.400579 115.941 -0.400579C115.941 -0.400579 115.941 -0.400579 115.941 -0.400579C115.941 -0.400579 115.941 -0.400579 115.941 -0.400579C115.941 -0.400579 115.941 -0.400579 115.941 -0.400579C115.941 -0.400579 115.941 -0.400579 115.941 -0.400578C115.941 -0.400578 115.941 -0.400578 115.941 -0.400578C115.941 -0.400578 115.941 -0.400578 115.941 -0.400578C115.941 -0.400578 115.941 -0.400578 115.941 -0.400578C115.941 -0.400578 115.941 -0.400578 115.941 -0.400578C115.941 -0.400578 115.941 -0.400578 115.941 -0.400578C115.941 -0.400578 115.941 -0.400578 115.941 -0.400578C115.941 -0.400578 115.941 -0.400578 115.941 -0.400578C115.941 -0.400578 115.941 -0.400578 115.941 -0.400578C115.941 -0.400578 115.941 -0.400577 115.941 -0.400577C115.941 -0.400577 115.941 -0.400577 115.941 -0.400577C115.941 -0.400577 115.941 -0.400577 115.941 -0.400577C115.941 -0.400577 115.941 -0.400577 115.941 -0.400577C115.941 -0.400577 115.941 -0.400577 115.941 -0.400577C115.941 -0.400577 115.941 -0.400577 115.941 -0.400577C115.941 -0.400577 115.941 -0.400577 115.941 -0.400577C115.941 -0.400577 115.941 -0.400577 115.941 -0.400577C115.941 -0.400577 115.941 -0.400577 115.941 -0.400576C115.941 -0.400576 115.941 -0.400576 115.941 -0.400576C115.941 -0.400576 115.941 -0.400576 115.941 -0.400576C115.941 -0.400576 115.941 -0.400576 115.941 -0.400576C115.941 -0.400576 115.941 -0.400576 115.941 -0.400576C115.941 -0.400576 115.941 -0.400576 115.941 -0.400576C115.941 -0.400576 115.941 -0.400576 115.941 -0.400576C115.941 -0.400576 115.941 -0.400576 115.941 -0.400576C115.941 -0.400576 115.941 -0.400576 115.941 -0.400576C115.941 -0.400575 115.941 -0.400575 115.941 -0.400575C115.941 -0.400575 115.941 -0.400575 115.941 -0.400575C115.941 -0.400575 115.941 -0.400575 115.941 -0.400575C115.941 -0.400575 115.941 -0.400575 115.941 -0.400575C115.941 -0.400575 115.941 -0.400575 115.941 -0.400575C115.941 -0.400575 115.941 -0.400575 115.941 -0.400575C115.941 -0.400575 115.941 -0.400575 115.941 -0.400575C115.941 -0.400575 115.941 -0.400575 115.941 -0.400575C115.941 -0.400575 115.941 -0.400574 115.941 -0.400574C115.941 -0.400574 115.941 -0.400574 115.941 -0.400574C115.941 -0.400574 115.941 -0.400574 115.941 -0.400574C115.941 -0.400574 115.941 -0.400574 115.941 -0.400574C115.941 -0.400574 115.941 -0.400574 115.941 -0.400574C115.941 -0.400574 115.941 -0.400574 115.941 -0.400574C115.941 -0.400574 115.941 -0.400574 115.941 -0.400574H133.941C133.941 -0.400574 133.941 -0.400574 133.941 -0.400574C133.941 -0.400574 133.941 -0.400574 133.941 -0.400574C133.941 -0.400574 133.941 -0.400574 133.941 -0.400574C133.941 -0.400574 133.941 -0.400574 133.941 -0.400574C133.941 -0.400574 133.941 -0.400574 133.941 -0.400574C133.941 -0.400574 133.941 -0.400574 133.941 -0.400574C133.941 -0.400574 133.941 -0.400575 133.941 -0.400575C133.941 -0.400575 133.941 -0.400575 133.941 -0.400575C133.941 -0.400575 133.941 -0.400575 133.941 -0.400575C133.941 -0.400575 133.941 -0.400575 133.941 -0.400575C133.941 -0.400575 133.941 -0.400575 133.941 -0.400575C133.941 -0.400575 133.941 -0.400575 133.941 -0.400575C133.941 -0.400575 133.941 -0.400575 133.941 -0.400575C133.941 -0.400575 133.941 -0.400575 133.941 -0.400575C133.941 -0.400575 133.941 -0.400575 133.941 -0.400576C133.941 -0.400576 133.941 -0.400576 133.941 -0.400576C133.941 -0.400576 133.941 -0.400576 133.941 -0.400576C133.941 -0.400576 133.941 -0.400576 133.941 -0.400576C133.941 -0.400576 133.941 -0.400576 133.941 -0.400576C133.941 -0.400576 133.941 -0.400576 133.941 -0.400576C133.941 -0.400576 133.941 -0.400576 133.941 -0.400576C133.941 -0.400576 133.941 -0.400576 133.941 -0.400576C133.941 -0.400576 133.941 -0.400576 133.941 -0.400576C133.941 -0.400577 133.941 -0.400577 133.941 -0.400577C133.941 -0.400577 133.941 -0.400577 133.941 -0.400577C133.941 -0.400577 133.941 -0.400577 133.941 -0.400577C133.941 -0.400577 133.941 -0.400577 133.941 -0.400577C133.941 -0.400577 133.941 -0.400577 133.941 -0.400577C133.941 -0.400577 133.941 -0.400577 133.941 -0.400577C133.941 -0.400577 133.941 -0.400577 133.941 -0.400577C133.941 -0.400577 133.941 -0.400577 133.941 -0.400577C133.941 -0.400577 133.941 -0.400578 133.941 -0.400578C133.941 -0.400578 133.941 -0.400578 133.941 -0.400578C133.941 -0.400578 133.941 -0.400578 133.941 -0.400578C133.941 -0.400578 133.941 -0.400578 133.941 -0.400578C133.941 -0.400578 133.941 -0.400578 133.941 -0.400578C133.941 -0.400578 133.941 -0.400578 133.941 -0.400578C133.941 -0.400578 133.941 -0.400578 133.941 -0.400578C133.941 -0.400578 133.941 -0.400578 133.941 -0.400578C133.941 -0.400578 133.941 -0.400578 133.941 -0.400578C133.941 -0.400579 133.941 -0.400579 133.941 -0.400579C133.941 -0.400579 133.941 -0.400579 133.941 -0.400579C133.941 -0.400579 133.941 -0.400579 133.941 -0.400579C133.941 -0.400579 133.941 -0.400579 133.941 -0.400579C133.941 -0.400579 133.941 -0.400579 133.941 -0.400579C133.941 -0.400579 133.941 -0.400579 133.941 -0.400579C133.941 -0.400579 133.941 -0.400579 133.941 -0.400579C133.941 -0.400579 133.941 -0.400579 133.941 -0.400579C133.941 -0.400579 133.941 -0.40058 133.941 -0.40058C133.941 -0.40058 133.941 -0.40058 133.941 -0.40058C133.941 -0.40058 133.941 -0.40058 133.941 -0.40058C133.941 -0.40058 133.941 -0.40058 133.941 -0.40058C133.941 -0.40058 133.941 -0.40058 133.941 -0.40058C133.941 -0.40058 133.941 -0.40058 133.941 -0.40058C133.941 -0.40058 133.941 -0.40058 133.941 -0.40058C133.941 -0.40058 133.941 -0.40058 133.941 -0.40058C133.941 -0.40058 133.941 -0.40058 133.941 -0.400581C133.941 -0.400581 133.941 -0.400581 133.941 -0.400581C133.941 -0.400581 133.941 -0.400581 133.941 -0.400581C133.941 -0.400581 133.941 -0.400581 133.941 -0.400581C133.941 -0.400581 133.941 -0.400581 133.941 -0.400581C133.941 -0.400581 133.941 -0.400581 133.941 -0.400581C133.941 -0.400581 133.941 -0.400581 133.941 -0.400581C133.941 -0.400581 133.941 -0.400581 133.941 -0.400581C133.941 -0.400581 133.941 -0.400581 133.941 -0.400581C133.941 -0.400582 133.941 -0.400582 133.941 -0.400582C133.941 -0.400582 133.941 -0.400582 133.941 -0.400582C133.941 -0.400582 133.941 -0.400582 133.941 -0.400582C133.941 -0.400582 133.941 -0.400582 133.941 -0.400582C133.941 -0.400582 133.941 -0.400582 133.941 -0.400582C133.941 -0.400582 133.941 -0.400582 133.941 -0.400582C133.941 -0.400582 133.941 -0.400582 133.941 -0.400582C133.941 -0.400582 133.941 -0.400582 133.941 -0.400582C133.941 -0.400582 133.941 -0.400583 133.941 -0.400583C133.941 -0.400583 133.941 -0.400583 133.941 -0.400583C133.941 -0.400583 133.941 -0.400583 133.941 -0.400583C133.941 -0.400583 133.941 -0.400583 133.941 -0.400583C133.941 -0.400583 133.941 -0.400583 133.941 -0.400583C133.941 -0.400583 133.941 -0.400583 133.941 -0.400583C133.941 -0.400583 133.941 -0.400583 133.941 -0.400583C133.941 -0.400583 133.941 -0.400583 133.941 -0.400583C133.941 -0.400583 133.941 -0.400583 133.941 -0.400584C133.941 -0.400584 133.941 -0.400584 133.941 -0.400584C133.941 -0.400584 133.941 -0.400584 133.941 -0.400584C133.941 -0.400584 133.941 -0.400584 133.941 -0.400584C133.941 -0.400584 133.941 -0.400584 133.941 -0.400584C133.941 -0.400584 133.941 -0.400584 133.941 -0.400584C133.941 -0.400584 133.941 -0.400584 133.941 -0.400584C133.941 -0.400584 133.941 -0.400584 133.941 -0.400584C133.941 -0.400584 133.941 -0.400584 133.941 -0.400584C133.941 -0.400584 133.941 -0.400585 133.941 -0.400585C133.941 -0.400585 133.941 -0.400585 133.941 -0.400585C133.941 -0.400585 133.941 -0.400585 133.941 -0.400585C133.941 -0.400585 133.941 -0.400585 133.941 -0.400585C133.941 -0.400585 133.941 -0.400585 133.941 -0.400585C133.941 -0.400585 133.941 -0.400585 133.941 -0.400585C133.941 -0.400585 133.941 -0.400585 133.941 -0.400585C133.941 -0.400585 133.941 -0.400585 133.941 -0.400585C133.941 -0.400585 133.941 -0.400585 133.941 -0.400586C133.941 -0.400586 133.941 -0.400586 133.941 -0.400586C133.941 -0.400586 133.941 -0.400586 133.941 -0.400586C133.941 -0.400586 133.941 -0.400586 133.941 -0.400586C133.941 -0.400586 133.941 -0.400586 133.941 -0.400586C133.941 -0.400586 133.941 -0.400586 133.941 -0.400586C133.941 -0.400586 133.941 -0.400586 133.941 -0.400586C133.941 -0.400586 133.941 -0.400586 133.941 -0.400586C133.941 -0.400586 133.941 -0.400586 133.941 -0.400586C133.941 -0.400587 133.941 -0.400587 133.941 -0.400587C133.941 -0.400587 133.941 -0.400587 133.941 -0.400587C133.941 -0.400587 133.941 -0.400587 133.941 -0.400587C133.941 -0.400587 133.941 -0.400587 133.941 -0.400587C133.941 -0.400587 133.941 -0.400587 133.941 -0.400587C133.941 -0.400587 133.941 -0.400587 133.941 -0.400587C133.941 -0.400587 133.941 -0.400587 133.941 -0.400587C133.941 -0.400587 133.941 -0.400587 133.941 -0.400587C133.941 -0.400587 133.941 -0.400588 133.941 -0.400588C133.941 -0.400588 133.941 -0.400588 133.941 -0.400588C133.941 -0.400588 133.941 -0.400588 133.941 -0.400588C133.941 -0.400588 133.941 -0.400588 133.941 -0.400588C133.941 -0.400588 133.941 -0.400588 133.941 -0.400588C133.941 -0.400588 133.941 -0.400588 133.941 -0.400588C133.941 -0.400588 133.941 -0.400588 133.941 -0.400588C133.941 -0.400588 133.941 -0.400588 133.941 -0.400588C133.941 -0.400588 133.941 -0.400588 133.941 -0.400589C133.941 -0.400589 133.941 -0.400589 133.941 -0.400589C133.941 -0.400589 133.941 -0.400589 133.941 -0.400589C133.941 -0.400589 133.941 -0.400589 133.941 -0.400589C133.941 -0.400589 133.941 -0.400589 133.941 -0.400589C133.941 -0.400589 133.941 -0.400589 133.941 -0.400589C133.941 -0.400589 133.941 -0.400589 133.941 -0.400589C133.941 -0.400589 133.941 -0.400589 133.941 -0.400589C133.941 -0.400589 133.941 -0.400589 133.941 -0.400589C133.941 -0.40059 133.941 -0.40059 133.941 -0.40059C133.941 -0.40059 133.941 -0.40059 133.941 -0.40059C133.941 -0.40059 133.941 -0.40059 133.941 -0.40059C133.941 -0.40059 133.941 -0.40059 133.941 -0.40059C133.941 -0.40059 133.941 -0.40059 133.941 -0.40059C133.941 -0.40059 133.941 -0.40059 133.941 -0.40059C133.941 -0.40059 133.941 -0.40059 133.941 -0.40059C133.941 -0.40059 133.941 -0.40059 133.941 -0.40059C133.941 -0.40059 133.941 -0.40059 133.941 -0.400591C133.941 -0.400591 133.941 -0.400591 133.941 -0.400591C133.941 -0.400591 133.941 -0.400591 133.941 -0.400591C133.941 -0.400591 133.941 -0.400591 133.941 -0.400591C133.941 -0.400591 133.941 -0.400591 133.941 -0.400591C133.941 -0.400591 133.941 -0.400591 133.941 -0.400591C133.941 -0.400591 133.941 -0.400591 133.941 -0.400591C133.941 -0.400591 133.941 -0.400591 133.941 -0.400591C133.941 -0.400591 133.941 -0.400591 133.941 -0.400591C133.941 -0.400592 133.941 -0.400592 133.941 -0.400592C133.941 -0.400592 133.941 -0.400592 133.941 -0.400592C133.941 -0.400592 133.941 -0.400592 133.941 -0.400592C133.941 -0.400592 133.941 -0.400592 133.941 -0.400592C133.941 -0.400592 133.941 -0.400592 133.941 -0.400592C133.941 -0.400592 133.941 -0.400592 133.941 -0.400592C133.941 -0.400592 133.941 -0.400592 133.941 -0.400592C133.941 -0.400592 133.941 -0.400592 133.941 -0.400592C133.941 -0.400592 133.941 -0.400593 133.941 -0.400593C133.941 -0.400593 133.941 -0.400593 133.941 -0.400593C133.941 -0.400593 133.941 -0.400593 133.941 -0.400593C133.941 -0.400593 133.941 -0.400593 133.941 -0.400593C133.941 -0.400593 133.941 -0.400593 133.941 -0.400593C133.941 -0.400593 133.941 -0.400593 133.941 -0.400593C133.941 -0.400593 133.941 -0.400593 133.941 -0.400593C133.941 -0.400593 133.941 -0.400593 133.941 -0.400593C133.941 -0.400593 133.941 -0.400593 133.941 -0.400594C133.941 -0.400594 133.941 -0.400594 133.941 -0.400594C133.941 -0.400594 133.941 -0.400594 133.941 -0.400594C133.941 -0.400594 133.941 -0.400594 133.941 -0.400594C133.941 -0.400594 133.941 -0.400594 133.941 -0.400594C133.941 -0.400594 133.941 -0.400594 133.941 -0.400594C133.941 -0.400594 133.941 -0.400594 133.941 -0.400594C133.941 -0.400594 133.941 -0.400594 133.941 -0.400594C133.941 -0.400594 133.941 -0.400594 133.941 -0.400594C133.941 -0.400595 133.941 -0.400595 133.941 -0.400595C133.941 -0.400595 133.941 -0.400595 133.941 -0.400595C133.941 -0.400595 133.941 -0.400595 133.941 -0.400595C133.941 -0.400595 133.941 -0.400595 133.941 -0.400595C133.941 -0.400595 133.941 -0.400595 133.941 -0.400595C133.941 -0.400595 133.941 -0.400595 133.941 -0.400595C133.941 -0.400595 133.941 -0.400595 133.941 -0.400595C133.941 -0.400595 133.941 -0.400595 133.941 -0.400595C133.941 -0.400595 133.941 -0.400596 133.941 -0.400596C133.941 -0.400596 133.941 -0.400596 133.941 -0.400596C133.941 -0.400596 133.941 -0.400596 133.941 -0.400596C133.941 -0.400596 133.941 -0.400596 133.941 -0.400596C133.941 -0.400596 133.941 -0.400596 133.941 -0.400596C133.941 -0.400596 133.941 -0.400596 133.941 -0.400596C133.941 -0.400596 133.941 -0.400596 133.941 -0.400596C133.941 -0.400596 133.941 -0.400596 133.941 -0.400596C133.941 -0.400596 133.941 -0.400596 133.941 -0.400596C133.941 -0.400597 133.941 -0.400597 133.941 -0.400597C133.941 -0.400597 133.941 -0.400597 133.941 -0.400597C133.941 -0.400597 133.941 -0.400597 133.941 -0.400597C133.941 -0.400597 133.941 -0.400597 133.941 -0.400597C133.941 -0.400597 133.941 -0.400597 133.941 -0.400597C133.941 -0.400597 133.941 -0.400597 133.941 -0.400597C133.941 -0.400597 133.941 -0.400597 133.941 -0.400597C133.941 -0.400597 133.941 -0.400597 133.941 -0.400597C133.941 -0.400597 133.941 -0.400598 133.941 -0.400598C133.941 -0.400598 133.941 -0.400598 133.941 -0.400598C133.941 -0.400598 133.941 -0.400598 133.941 -0.400598C133.941 -0.400598 133.941 -0.400598 133.941 -0.400598C133.941 -0.400598 133.941 -0.400598 133.941 -0.400598C133.941 -0.400598 133.941 -0.400598 133.941 -0.400598C133.941 -0.400598 133.941 -0.400598 133.941 -0.400598C133.941 -0.400598 133.941 -0.400598 133.941 -0.400598C133.941 -0.400598 133.941 -0.400598 133.941 -0.400599C133.941 -0.400599 133.941 -0.400599 133.941 -0.400599C133.941 -0.400599 133.941 -0.400599 133.941 -0.400599C133.941 -0.400599 133.941 -0.400599 133.941 -0.400599C133.941 -0.400599 133.941 -0.400599 133.941 -0.400599C133.941 -0.400599 133.941 -0.400599 133.941 -0.400599C133.941 -0.400599 133.941 -0.400599 133.941 -0.400599C133.941 -0.400599 133.941 -0.400599 133.941 -0.400599C133.941 -0.400599 133.941 -0.400599 133.941 -0.400599C133.941 -0.4006 133.941 -0.4006 133.941 -0.4006C133.941 -0.4006 133.941 -0.4006 133.941 -0.4006C133.941 -0.4006 133.941 -0.4006 133.941 -0.4006C133.941 -0.4006 133.941 -0.4006 133.941 -0.4006C133.941 -0.4006 133.941 -0.4006 133.941 -0.4006C133.941 -0.4006 133.941 -0.4006 133.941 -0.4006C133.941 -0.4006 133.941 -0.4006 133.941 -0.4006C133.941 -0.4006 133.941 -0.4006 133.941 -0.4006C133.941 -0.4006 133.941 -0.400601 133.941 -0.400601C133.941 -0.400601 133.941 -0.400601 133.941 -0.400601C133.941 -0.400601 133.941 -0.400601 133.941 -0.400601C133.941 -0.400601 133.941 -0.400601 133.941 -0.400601C133.941 -0.400601 133.941 -0.400601 133.941 -0.400601C133.941 -0.400601 133.941 -0.400601 133.941 -0.400601C133.941 -0.400601 133.941 -0.400601 133.941 -0.400601C133.941 -0.400601 133.941 -0.400601 133.941 -0.400601C133.941 -0.400601 133.941 -0.400601 133.941 -0.400602C133.941 -0.400602 133.941 -0.400602 133.941 -0.400602C133.941 -0.400602 133.941 -0.400602 133.941 -0.400602C133.941 -0.400602 133.941 -0.400602 133.941 -0.400602C133.941 -0.400602 133.941 -0.400602 133.941 -0.400602C133.941 -0.400602 133.941 -0.400602 133.941 -0.400602C133.941 -0.400602 133.941 -0.400602 133.941 -0.400602C133.941 -0.400602 133.941 -0.400602 133.941 -0.400602C133.941 -0.400602 133.941 -0.400602 133.941 -0.400602C133.941 -0.400602 133.941 -0.400603 133.941 -0.400603C133.941 -0.400603 133.941 -0.400603 133.941 -0.400603C133.941 -0.400603 133.941 -0.400603 133.941 -0.400603C133.941 -0.400603 133.941 -0.400603 133.941 -0.400603C133.941 -0.400603 133.941 -0.400603 133.941 -0.400603C133.941 -0.400603 133.941 -0.400603 133.941 -0.400603C133.941 -0.400603 133.941 -0.400603 133.941 -0.400603C133.941 -0.400603 133.941 -0.400603 133.941 -0.400603C133.941 -0.400603 133.941 -0.400603 133.941 -0.400604C133.941 -0.400604 133.941 -0.400604 133.941 -0.400604C133.941 -0.400604 133.941 -0.400604 133.941 -0.400604C133.941 -0.400604 133.941 -0.400604 133.941 -0.400604C133.941 -0.400604 133.941 -0.400604 133.941 -0.400604C133.941 -0.400604 133.941 -0.400604 133.941 -0.400604C133.941 -0.400604 133.941 -0.400604 133.941 -0.400604C133.941 -0.400604 133.941 -0.400604 133.941 -0.400604C133.941 -0.400604 133.941 -0.400604 133.941 -0.400604C133.941 -0.400605 133.941 -0.400605 133.941 -0.400605C133.941 -0.400605 133.941 -0.400605 133.941 -0.400605C133.941 -0.400605 133.941 -0.400605 133.941 -0.400605C133.941 -0.400605 133.941 -0.400605 133.941 -0.400605C133.941 -0.400605 133.941 -0.400605 133.941 -0.400605C133.941 -0.400605 133.941 -0.400605 133.941 -0.400605C133.941 -0.400605 133.941 -0.400605 133.941 -0.400605C133.941 -0.400605 133.941 -0.400605 133.941 -0.400605C133.941 -0.400605 133.941 -0.400606 133.941 -0.400606C133.941 -0.400606 133.941 -0.400606 133.941 -0.400606C133.941 -0.400606 133.941 -0.400606 133.941 -0.400606C133.941 -0.400606 133.941 -0.400606 133.941 -0.400606C133.941 -0.400606 133.941 -0.400606 133.941 -0.400606C133.941 -0.400606 133.941 -0.400606 133.941 -0.400606C133.941 -0.400606 133.941 -0.400606 133.941 -0.400606C133.941 -0.400606 133.941 -0.400606 133.941 -0.400606C133.941 -0.400606 133.941 -0.400606 133.941 -0.400607C133.941 -0.400607 133.941 -0.400607 133.941 -0.400607C133.941 -0.400607 133.941 -0.400607 133.941 -0.400607C133.941 -0.400607 133.941 -0.400607 133.941 -0.400607C133.941 -0.400607 133.941 -0.400607 133.941 -0.400607C133.941 -0.400607 133.941 -0.400607 133.941 -0.400607C133.941 -0.400607 133.941 -0.400607 133.941 -0.400607C133.941 -0.400607 133.941 -0.400607 133.941 -0.400607C133.941 -0.400607 133.941 -0.400607 133.941 -0.400607C133.941 -0.400608 133.941 -0.400608 133.941 -0.400608C133.941 -0.400608 133.941 -0.400608 133.941 -0.400608C133.941 -0.400608 133.941 -0.400608 133.941 -0.400608C133.941 -0.400608 133.941 -0.400608 133.941 -0.400608C133.941 -0.400608 133.941 -0.400608 133.941 -0.400608C133.941 -0.400608 133.941 -0.400608 133.941 -0.400608C133.941 -0.400608 133.941 -0.400608 133.941 -0.400608C133.941 -0.400608 133.941 -0.400608 133.941 -0.400608C133.941 -0.400608 133.941 -0.400608 133.941 -0.400609C133.941 -0.400609 133.941 -0.400609 133.941 -0.400609C133.941 -0.400609 133.941 -0.400609 133.941 -0.400609C133.941 -0.400609 133.941 -0.400609 133.941 -0.400609C133.941 -0.400609 133.941 -0.400609 133.941 -0.400609C133.941 -0.400609 133.941 -0.400609 133.941 -0.400609C133.941 -0.400609 133.941 -0.400609 133.941 -0.400609C133.941 -0.400609 133.941 -0.400609 133.941 -0.400609C133.941 -0.400609 133.941 -0.400609 133.941 -0.400609C133.941 -0.40061 133.941 -0.40061 133.941 -0.40061C133.941 -0.40061 133.941 -0.40061 133.941 -0.40061C133.941 -0.40061 133.941 -0.40061 133.941 -0.40061C133.941 -0.40061 133.941 -0.40061 133.941 -0.40061C133.941 -0.40061 133.941 -0.40061 133.941 -0.40061C133.941 -0.40061 133.941 -0.40061 133.941 -0.40061C133.941 -0.40061 133.941 -0.40061 133.941 -0.40061C133.941 -0.40061 133.941 -0.40061 133.941 -0.40061C133.941 -0.40061 133.941 -0.400611 133.941 -0.400611C133.941 -0.400611 133.941 -0.400611 133.941 -0.400611C133.941 -0.400611 133.941 -0.400611 133.941 -0.400611C133.941 -0.400611 133.941 -0.400611 133.941 -0.400611C133.941 -0.400611 133.941 -0.400611 133.941 -0.400611C133.941 -0.400611 133.941 -0.400611 133.941 -0.400611C133.941 -0.400611 133.941 -0.400611 133.941 -0.400611C133.941 -0.400611 133.941 -0.400611 133.941 -0.400611C133.941 -0.400611 133.941 -0.400611 133.941 -0.400612C133.941 -0.400612 133.941 -0.400612 133.941 -0.400612C133.941 -0.400612 133.941 -0.400612 133.941 -0.400612C133.941 -0.400612 133.941 -0.400612 133.941 -0.400612C133.941 -0.400612 133.941 -0.400612 133.941 -0.400612C133.941 -0.400612 133.941 -0.400612 133.941 -0.400612C133.941 -0.400612 133.941 -0.400612 133.941 -0.400612C133.941 -0.400612 133.941 -0.400612 133.941 -0.400612C133.941 -0.400612 133.941 -0.400612 133.941 -0.400612C133.941 -0.400613 133.941 -0.400613 133.941 -0.400613C133.941 -0.400613 133.941 -0.400613 133.941 -0.400613C133.941 -0.400613 133.941 -0.400613 133.941 -0.400613C133.941 -0.400613 133.941 -0.400613 133.941 -0.400613C133.941 -0.400613 133.941 -0.400613 133.941 -0.400613C133.941 -0.400613 133.941 -0.400613 133.941 -0.400613C133.941 -0.400613 133.941 -0.400613 133.941 -0.400613C133.941 -0.400613 133.941 -0.400613 133.941 -0.400613C133.941 -0.400613 133.941 -0.400614 133.941 -0.400614C133.941 -0.400614 133.941 -0.400614 133.941 -0.400614C133.941 -0.400614 133.941 -0.400614 133.941 -0.400614C133.941 -0.400614 133.941 -0.400614 133.941 -0.400614C133.941 -0.400614 133.941 -0.400614 133.941 -0.400614C133.941 -0.400614 133.941 -0.400614 133.941 -0.400614C133.941 -0.400614 133.941 -0.400614 133.941 -0.400614C133.941 -0.400614 133.941 -0.400614 133.941 -0.400614C133.941 -0.400614 133.941 -0.400614 133.941 -0.400615C133.941 -0.400615 133.941 -0.400615 133.941 -0.400615C133.941 -0.400615 133.941 -0.400615 133.941 -0.400615C133.941 -0.400615 133.941 -0.400615 133.941 -0.400615C133.941 -0.400615 133.941 -0.400615 133.941 -0.400615C133.941 -0.400615 133.941 -0.400615 133.941 -0.400615C133.941 -0.400615 133.941 -0.400615 133.941 -0.400615C133.941 -0.400615 133.941 -0.400615 133.941 -0.400615C133.941 -0.400615 133.941 -0.400615 133.941 -0.400615C133.941 -0.400615 133.941 -0.400616 133.941 -0.400616C133.941 -0.400616 133.941 -0.400616 133.941 -0.400616C133.941 -0.400616 133.941 -0.400616 133.941 -0.400616C133.941 -0.400616 133.941 -0.400616 133.941 -0.400616C133.941 -0.400616 133.941 -0.400616 133.941 -0.400616C133.941 -0.400616 133.941 -0.400616 133.941 -0.400616C133.941 -0.400616 133.941 -0.400616 133.941 -0.400616C133.941 -0.400616 133.941 -0.400616 133.941 -0.400616C133.941 -0.400616 133.941 -0.400616 133.941 -0.400617C133.941 -0.400617 133.941 -0.400617 133.941 -0.400617C133.941 -0.400617 133.941 -0.400617 133.941 -0.400617C133.941 -0.400617 133.941 -0.400617 133.941 -0.400617C133.941 -0.400617 133.941 -0.400617 133.941 -0.400617C133.941 -0.400617 133.941 -0.400617 133.941 -0.400617C133.941 -0.400617 133.941 -0.400617 133.941 -0.400617C133.941 -0.400617 133.941 -0.400617 133.941 -0.400617C133.941 -0.400617 133.941 -0.400617 133.941 -0.400617C133.941 -0.400618 133.941 -0.400618 133.941 -0.400618C133.941 -0.400618 133.941 -0.400618 133.941 -0.400618C133.941 -0.400618 133.941 -0.400618 133.941 -0.400618C133.941 -0.400618 133.941 -0.400618 133.941 -0.400618C133.941 -0.400618 133.941 -0.400618 133.941 -0.400618C133.941 -0.400618 133.941 -0.400618 133.941 -0.400618C133.941 -0.400618 133.941 -0.400618 133.941 -0.400618C133.941 -0.400618 133.941 -0.400618 133.941 -0.400618C133.941 -0.400618 133.941 -0.400619 133.941 -0.400619C133.941 -0.400619 133.941 -0.400619 133.941 -0.400619C133.941 -0.400619 133.941 -0.400619 133.941 -0.400619C133.941 -0.400619 133.941 -0.400619 133.941 -0.400619C133.941 -0.400619 133.941 -0.400619 133.941 -0.400619C133.941 -0.400619 133.941 -0.400619 133.941 -0.400619C133.941 -0.400619 133.941 -0.400619 133.941 -0.400619C133.941 -0.400619 133.941 -0.400619 133.941 -0.400619C133.941 -0.400619 133.941 -0.400619 133.941 -0.40062C133.941 -0.40062 133.941 -0.40062 133.941 -0.40062C133.941 -0.40062 133.941 -0.40062 133.941 -0.40062C133.941 -0.40062 133.941 -0.40062 133.941 -0.40062C133.941 -0.40062 133.941 -0.40062 133.941 -0.40062C133.941 -0.40062 133.941 -0.40062 133.941 -0.40062C133.941 -0.40062 133.941 -0.40062 133.941 -0.40062C133.941 -0.40062 133.941 -0.40062 133.941 -0.40062C133.941 -0.40062 133.941 -0.40062 133.941 -0.40062C133.941 -0.400621 133.941 -0.400621 133.941 -0.400621C133.941 -0.400621 133.941 -0.400621 133.941 -0.400621C133.941 -0.400621 133.941 -0.400621 133.941 -0.400621C133.941 -0.400621 133.941 -0.400621 133.941 -0.400621C133.941 -0.400621 133.941 -0.400621 133.941 -0.400621C133.941 -0.400621 133.941 -0.400621 133.941 -0.400621C133.941 -0.400621 133.941 -0.400621 133.941 -0.400621C133.941 -0.400621 133.941 -0.400621 133.941 -0.400621C133.941 -0.400621 133.941 -0.400621 133.941 -0.400622C133.941 -0.400622 133.941 -0.400622 133.941 -0.400622C133.941 -0.400622 133.941 -0.400622 133.941 -0.400622C133.941 -0.400622 133.941 -0.400622 133.941 -0.400622C133.941 -0.400622 133.941 -0.400622 133.941 -0.400622C133.941 -0.400622 133.941 -0.400622 133.941 -0.400622C133.941 -0.400622 133.941 -0.400622 133.941 -0.400622C133.941 -0.400622 133.941 -0.400622 133.941 -0.400622C133.941 -0.400622 133.941 -0.400622 133.941 -0.400622C133.941 -0.400623 133.941 -0.400623 133.941 -0.400623C133.941 -0.400623 133.941 -0.400623 133.941 -0.400623C133.941 -0.400623 133.941 -0.400623 133.941 -0.400623C133.941 -0.400623 133.941 -0.400623 133.941 -0.400623C133.941 -0.400623 133.941 -0.400623 133.941 -0.400623C133.941 -0.400623 133.941 -0.400623 133.941 -0.400623C133.941 -0.400623 133.941 -0.400623 133.941 -0.400623C133.941 -0.400623 133.941 -0.400623 133.941 -0.400623C133.941 -0.400623 133.941 -0.400624 133.941 -0.400624C133.941 -0.400624 133.941 -0.400624 133.941 -0.400624C133.941 -0.400624 133.941 -0.400624 133.941 -0.400624C133.941 -0.400624 133.941 -0.400624 133.941 -0.400624C133.941 -0.400624 133.941 -0.400624 133.941 -0.400624C133.941 -0.400624 133.941 -0.400624 133.941 -0.400624C133.941 -0.400624 133.941 -0.400624 133.941 -0.400624C133.941 -0.400624 133.941 -0.400624 133.941 -0.400624C133.941 -0.400624 133.941 -0.400624 133.941 -0.400625C133.941 -0.400625 133.941 -0.400625 133.941 -0.400625C133.941 -0.400625 133.941 -0.400625 133.941 -0.400625C133.941 -0.400625 133.941 -0.400625 133.941 -0.400625C133.941 -0.400625 133.941 -0.400625 133.941 -0.400625C133.941 -0.400625 133.941 -0.400625 133.941 -0.400625C133.941 -0.400625 133.941 -0.400625 133.941 -0.400625C133.941 -0.400625 133.941 -0.400625 133.941 -0.400625C133.941 -0.400625 133.941 -0.400625 133.941 -0.400625C133.941 -0.400626 133.941 -0.400626 133.941 -0.400626C133.941 -0.400626 133.941 -0.400626 133.941 -0.400626C133.941 -0.400626 133.941 -0.400626 133.941 -0.400626C133.941 -0.400626 133.941 -0.400626 133.941 -0.400626C133.941 -0.400626 133.941 -0.400626 133.941 -0.400626C133.941 -0.400626 133.941 -0.400626 133.941 -0.400626C133.941 -0.400626 133.941 -0.400626 133.941 -0.400626C133.941 -0.400626 133.941 -0.400626 133.941 -0.400626C133.941 -0.400626 133.941 -0.400627 133.941 -0.400627C133.941 -0.400627 133.941 -0.400627 133.941 -0.400627C133.941 -0.400627 133.941 -0.400627 133.941 -0.400627C133.941 -0.400627 133.941 -0.400627 133.941 -0.400627C133.941 -0.400627 133.941 -0.400627 133.941 -0.400627C133.941 -0.400627 133.941 -0.400627 133.941 -0.400627C133.941 -0.400627 133.941 -0.400627 133.941 -0.400627C133.941 -0.400627 133.941 -0.400627 133.941 -0.400627C133.941 -0.400627 133.941 -0.400627 133.941 -0.400627C133.941 -0.400628 133.941 -0.400628 133.941 -0.400628C133.941 -0.400628 133.941 -0.400628 133.941 -0.400628C133.941 -0.400628 133.941 -0.400628 133.941 -0.400628C133.941 -0.400628 133.941 -0.400628 133.941 -0.400628C133.941 -0.400628 133.941 -0.400628 133.941 -0.400628C133.941 -0.400628 133.941 -0.400628 133.941 -0.400628C133.941 -0.400628 133.941 -0.400628 133.941 -0.400628C133.941 -0.400628 133.941 -0.400628 133.941 -0.400628C133.941 -0.400628 133.941 -0.400629 133.941 -0.400629C133.941 -0.400629 133.941 -0.400629 133.941 -0.400629C133.941 -0.400629 133.941 -0.400629 133.941 -0.400629C133.941 -0.400629 133.941 -0.400629 133.941 -0.400629C133.941 -0.400629 133.941 -0.400629 133.941 -0.400629C133.941 -0.400629 133.941 -0.400629 133.941 -0.400629C133.941 -0.400629 133.941 -0.400629 133.941 -0.400629C133.941 -0.400629 133.941 -0.400629 133.941 -0.400629C133.941 -0.400629 133.941 -0.400629 133.941 -0.40063C133.941 -0.40063 133.941 -0.40063 133.941 -0.40063C133.941 -0.40063 133.941 -0.40063 133.941 -0.40063C133.941 -0.40063 133.941 -0.40063 133.941 -0.40063C133.941 -0.40063 133.941 -0.40063 133.941 -0.40063C133.941 -0.40063 133.941 -0.40063 133.941 -0.40063C133.941 -0.40063 133.941 -0.40063 133.941 -0.40063C133.941 -0.40063 133.941 -0.40063 133.941 -0.40063C133.941 -0.40063 133.941 -0.40063 133.941 -0.40063C133.941 -0.400631 133.941 -0.400631 133.941 -0.400631C133.941 -0.400631 133.941 -0.400631 133.941 -0.400631C133.941 -0.400631 133.941 -0.400631 133.941 -0.400631C133.941 -0.400631 133.941 -0.400631 133.941 -0.400631C133.941 -0.400631 133.941 -0.400631 133.941 -0.400631C133.941 -0.400631 133.941 -0.400631 133.941 -0.400631C133.941 -0.400631 133.941 -0.400631 133.941 -0.400631C133.941 -0.400631 133.941 -0.400631 133.941 -0.400631C133.941 -0.400631 133.941 -0.400632 133.941 -0.400632C133.941 -0.400632 133.941 -0.400632 133.941 -0.400632C133.941 -0.400632 133.941 -0.400632 133.941 -0.400632C133.941 -0.400632 133.941 -0.400632 133.941 -0.400632C133.941 -0.400632 133.941 -0.400632 133.941 -0.400632C133.941 -0.400632 133.941 -0.400632 133.941 -0.400632C133.941 -0.400632 133.941 -0.400632 133.941 -0.400632C133.941 -0.400632 133.941 -0.400632 133.941 -0.400632C133.941 -0.400632 133.941 -0.400632 133.941 -0.400633C133.941 -0.400633 133.941 -0.400633 133.941 -0.400633C133.941 -0.400633 133.941 -0.400633 133.941 -0.400633C133.941 -0.400633 133.941 -0.400633 133.941 -0.400633C133.941 -0.400633 133.941 -0.400633 133.941 -0.400633C133.941 -0.400633 133.941 -0.400633 133.941 -0.400633C133.941 -0.400633 133.941 -0.400633 133.941 -0.400633C133.941 -0.400633 133.941 -0.400633 133.941 -0.400633C133.941 -0.400633 133.941 -0.400633 133.941 -0.400633C133.941 -0.400633 133.941 -0.400634 133.941 -0.400634C133.941 -0.400634 133.941 -0.400634 133.941 -0.400634C133.941 -0.400634 133.941 -0.400634 133.941 -0.400634C133.941 -0.400634 133.941 -0.400634 133.941 -0.400634C133.941 -0.400634 133.941 -0.400634 133.941 -0.400634C133.941 -0.400634 133.941 -0.400634 133.941 -0.400634C133.941 -0.400634 133.941 -0.400634 133.941 -0.400634C133.941 -0.400634 133.941 -0.400634 133.941 -0.400634C133.941 -0.400634 133.941 -0.400634 133.941 -0.400635C133.941 -0.400635 133.941 -0.400635 133.941 -0.400635C133.941 -0.400635 133.941 -0.400635 133.941 -0.400635H115.941ZM124.941 -9.40057H0V8.59943H124.941V-9.40057ZM-9 -0.400574V451.059H9V-0.400574H-9ZM-3.6172 459.3L573.049 712.411L580.284 695.929L3.6172 442.818L-3.6172 459.3ZM576.667 713.17H577.33V695.17H576.667V713.17ZM573.198 712.166C689.242 772.138 820.934 806 960.5 806V788C823.877 788 695.012 754.859 581.462 696.175L573.198 712.166ZM960.5 806C1100.07 806 1231.76 772.138 1347.8 712.166L1339.54 696.175C1225.99 754.859 1097.12 788 960.5 788V806ZM1343.67 713.17H1344.67V695.17H1343.67V713.17ZM1348.29 712.408L1923.62 459.297L1916.38 442.821L1341.04 695.932L1348.29 712.408ZM1929 451.059V-0.400574H1911V451.059H1929ZM1920 -9.40057H1796.06V8.59943H1920V-9.40057ZM1796.06 -9.40057L124.941 -9.40063V8.59937L1796.06 8.59943V-9.40057Z" fill="url(#paint1_linear)" mask="url(#path-1-outside-1)"/>
</g>
<defs>
<filter id="filter0_di" x="-39" y="-35.4006" width="1998" height="875.401" filterUnits="userSpaceOnUse" color-interpolation-filters="sRGB">
<feFlood flood-opacity="0" result="BackgroundImageFix"/>
<feColorMatrix in="SourceAlpha" type="matrix" values="0 0 0 0 0 0 0 0 0 0 0 0 0 0 0 0 0 0 127 0"/>
<feOffset dy="4"/>
<feGaussianBlur stdDeviation="15"/>
<feColorMatrix type="matrix" values="0 0 0 0 0 0 0 0 0 0 0 0 0 0 0 0 0 0 0.25 0"/>
<feBlend mode="normal" in2="BackgroundImageFix" result="effect1_dropShadow"/>
<feBlend mode="normal" in="SourceGraphic" in2="effect1_dropShadow" result="shape"/>
<feColorMatrix in="SourceAlpha" type="matrix" values="0 0 0 0 0 0 0 0 0 0 0 0 0 0 0 0 0 0 127 0" result="hardAlpha"/>
<feOffset dy="4"/>
<feGaussianBlur stdDeviation="10"/>
<feComposite in2="hardAlpha" operator="arithmetic" k2="-1" k3="1"/>
<feColorMatrix type="matrix" values="0 0 0 0 0 0 0 0 0 0 0 0 0 0 0 0 0 0 0.25 0"/>
<feBlend mode="normal" in2="shape" result="effect2_innerShadow"/>
</filter>
<linearGradient id="paint0_linear" x1="-0.00104827" y1="8.9496" x2="1820.13" y2="694.044" gradientUnits="userSpaceOnUse">
<stop stop-color="#3A935E"/>
<stop offset="1" stop-color="#F4D64C"/>
</linearGradient>
<linearGradient id="paint1_linear" x1="960" y1="543.231" x2="960" y2="817.045" gradientUnits="userSpaceOnUse">
<stop stop-color="white"/>
<stop offset="1" stop-color="#F5F5F5"/>
</linearGradient>
</defs>
</svg>
