<svg width="15" height="14" viewBox="0 0 15 14" fill="none" xmlns="http://www.w3.org/2000/svg">
<path d="M6.54107 3.00026L6.86846 2.60692V5.00026C6.86846 5.17707 6.93234 5.34664 7.04604 5.47166C7.15974 5.59669 7.31395 5.66692 7.47474 5.66692C7.63554 5.66692 7.78975 5.59669 7.90345 5.47166C8.01715 5.34664 8.08102 5.17707 8.08102 5.00026V2.60692L8.40841 2.97359C8.46345 3.04194 8.53066 3.09713 8.60588 3.13574C8.68111 3.17436 8.76275 3.19557 8.84574 3.19807C8.92872 3.20057 9.0113 3.18431 9.08833 3.15028C9.16537 3.11625 9.23523 3.06519 9.29358 3.00026C9.35041 2.93828 9.39551 2.86455 9.42629 2.78331C9.45707 2.70207 9.47292 2.61493 9.47292 2.52692C9.47292 2.43892 9.45707 2.35178 9.42629 2.27054C9.39551 2.1893 9.35041 2.11557 9.29358 2.05359L7.9052 0.526923C7.84754 0.466229 7.77955 0.418653 7.70513 0.386923C7.55752 0.320244 7.39196 0.320244 7.24436 0.386923C7.16993 0.418653 7.10194 0.466229 7.04428 0.526923L5.6559 2.02692C5.53852 2.156 5.47258 2.33105 5.47258 2.51359C5.47258 2.69613 5.53852 2.87118 5.6559 3.00026C5.77328 3.12933 5.93249 3.20184 6.09849 3.20184C6.26449 3.20184 6.42369 3.12933 6.54107 3.00026ZM7.47474 7.00026C7.11501 7.00026 6.76336 7.11755 6.46425 7.33732C6.16514 7.55708 5.93202 7.86944 5.79435 8.23489C5.65669 8.60034 5.62067 9.00247 5.69085 9.39044C5.76103 9.7784 5.93426 10.1348 6.18863 10.4145C6.443 10.6942 6.76708 10.8847 7.1199 10.9618C7.47272 11.039 7.83843 10.9994 8.17078 10.848C8.50313 10.6966 8.78719 10.4403 8.98705 10.1114C9.18691 9.7825 9.29358 9.39582 9.29358 9.00026C9.29358 8.46982 9.10195 7.96112 8.76086 7.58604C8.41976 7.21097 7.95713 7.00026 7.47474 7.00026ZM7.47474 9.66692C7.35483 9.66692 7.23761 9.62782 7.13791 9.55457C7.03821 9.48131 6.9605 9.3772 6.91461 9.25538C6.86872 9.13356 6.85672 8.99952 6.88011 8.8702C6.9035 8.74088 6.96125 8.62209 7.04604 8.52885C7.13083 8.43562 7.23886 8.37212 7.35646 8.3464C7.47407 8.32068 7.59597 8.33388 7.70676 8.38434C7.81754 8.43479 7.91223 8.52024 7.97885 8.62988C8.04546 8.73951 8.08102 8.8684 8.08102 9.00026C8.08102 9.17707 8.01715 9.34664 7.90345 9.47166C7.78975 9.59668 7.63554 9.66692 7.47474 9.66692ZM3.23078 9.00026C3.23078 9.13211 3.26634 9.261 3.33296 9.37064C3.39958 9.48027 3.49427 9.56572 3.60505 9.61618C3.71583 9.66663 3.83774 9.67984 3.95534 9.65411C4.07295 9.62839 4.18098 9.5649 4.26577 9.47166C4.35056 9.37843 4.4083 9.25964 4.43169 9.13032C4.45509 9.001 4.44308 8.86695 4.39719 8.74513C4.3513 8.62332 4.2736 8.5192 4.17389 8.44594C4.07419 8.37269 3.95697 8.33359 3.83706 8.33359C3.67627 8.33359 3.52206 8.40383 3.40836 8.52885C3.29466 8.65388 3.23078 8.82345 3.23078 9.00026ZM11.7187 9.00026C11.7187 8.8684 11.6831 8.73951 11.6165 8.62988C11.5499 8.52024 11.4552 8.43479 11.3444 8.38434C11.2337 8.33388 11.1117 8.32068 10.9941 8.3464C10.8765 8.37212 10.7685 8.43562 10.6837 8.52885C10.5989 8.62209 10.5412 8.74088 10.5178 8.8702C10.4944 8.99952 10.5064 9.13356 10.5523 9.25538C10.5982 9.3772 10.6759 9.48131 10.7756 9.55457C10.8753 9.62782 10.9925 9.66692 11.1124 9.66692C11.2732 9.66692 11.4274 9.59668 11.5411 9.47166C11.6548 9.34664 11.7187 9.17707 11.7187 9.00026ZM12.325 4.33359H9.89986C9.73907 4.33359 9.58486 4.40383 9.47116 4.52885C9.35746 4.65388 9.29358 4.82345 9.29358 5.00026C9.29358 5.17707 9.35746 5.34664 9.47116 5.47166C9.58486 5.59669 9.73907 5.66692 9.89986 5.66692H12.325C12.4858 5.66692 12.64 5.73716 12.7537 5.86219C12.8674 5.98721 12.9313 6.15678 12.9313 6.33359V11.6669C12.9313 11.8437 12.8674 12.0133 12.7537 12.1383C12.64 12.2634 12.4858 12.3336 12.325 12.3336H2.6245C2.46371 12.3336 2.3095 12.2634 2.1958 12.1383C2.0821 12.0133 2.01822 11.8437 2.01822 11.6669V6.33359C2.01822 6.15678 2.0821 5.98721 2.1958 5.86219C2.3095 5.73716 2.46371 5.66692 2.6245 5.66692H5.04962C5.21042 5.66692 5.36463 5.59669 5.47833 5.47166C5.59203 5.34664 5.6559 5.17707 5.6559 5.00026C5.6559 4.82345 5.59203 4.65388 5.47833 4.52885C5.36463 4.40383 5.21042 4.33359 5.04962 4.33359H2.6245C2.14212 4.33359 1.67949 4.5443 1.33839 4.91938C0.997291 5.29445 0.805664 5.80316 0.805664 6.33359V11.6669C0.805664 12.1974 0.997291 12.7061 1.33839 13.0811C1.67949 13.4562 2.14212 13.6669 2.6245 13.6669H12.325C12.8074 13.6669 13.27 13.4562 13.6111 13.0811C13.9522 12.7061 14.1438 12.1974 14.1438 11.6669V6.33359C14.1438 5.80316 13.9522 5.29445 13.6111 4.91938C13.27 4.5443 12.8074 4.33359 12.325 4.33359Z" fill="white"/>
</svg>
